<svg xmlns="http://www.w3.org/2000/svg" width="26" height="24.909" viewBox="0 0 26 24.909">
  <g id="icon_cart" transform="translate(-0.5 -0.5)">
    <path id="Path_78" data-name="Path 78" d="M15,31.5A1.5,1.5,0,1,1,13.5,30,1.5,1.5,0,0,1,15,31.5Z" transform="translate(-3.15 -8.591)" fill="none" stroke="#fff" stroke-linecap="round" stroke-linejoin="round" stroke-width="2"/>
    <path id="Path_79" data-name="Path 79" d="M31.5,31.5A1.5,1.5,0,1,1,30,30,1.5,1.5,0,0,1,31.5,31.5Z" transform="translate(-9 -8.591)" fill="none" stroke="#fff" stroke-linecap="round" stroke-linejoin="round" stroke-width="2"/>
    <path id="Path_80" data-name="Path 80" d="M1.5,1.5H5.864L8.787,13.916a2.131,2.131,0,0,0,2.182,1.493h10.6a2.131,2.131,0,0,0,2.182-1.493L25.5,6.136H6.955" fill="none" stroke="#fff" stroke-linecap="round" stroke-linejoin="round" stroke-width="2"/>
  </g>
</svg>
