<svg id="logo" xmlns="http://www.w3.org/2000/svg" xmlns:xlink="http://www.w3.org/1999/xlink" width="98.965" height="40" viewBox="0 0 98.965 40">
  <defs>
    <clipPath id="clip-path">
      <rect id="Rectangle_5" data-name="Rectangle 5" width="98.965" height="40" fill="#fff"/>
    </clipPath>
  </defs>
  <g id="Group_1" data-name="Group 1" clip-path="url(#clip-path)">
    <path id="Path_2" data-name="Path 2" d="M33.57,32.053c.067.166.13.246.2.246s.1-.063.1-.2q0-3.218-7.38-4.76a35.248,35.248,0,0,0-4.583-.6q4.528-6.985,8.521-12.34a2.263,2.263,0,0,0,.54-1.093c0-.165-.148-.245-.443-.245l-.444.051q-.835,0-9.5,13.583h-.443a46.864,46.864,0,0,0-8.025.744Q4.977,28.73,2.018,31.7A5.948,5.948,0,0,0,0,35.869a4.753,4.753,0,0,0,2.12,3.817l.443.149c.262,0,.3-.068.1-.2a2.2,2.2,0,0,1-.983-1.688,3.187,3.187,0,0,1,.836-1.933q2.754-3.216,11.421-4.76c.886-.166,2.279-.378,4.182-.647q-9,14.882-9.006,17.354c0,.331.073.5.222.5s.3-.182.465-.543q2.412-5.749,9.693-17.394,2.958-.3,5.068-.3t3.592.149q4.933.438,5.42,1.682" transform="translate(0 -8.457)" fill="#fff"/>
    <path id="Path_3" data-name="Path 3" d="M105.611,1.339a2.263,2.263,0,0,0,.54-1.092c0-.166-.164-.247-.494-.247l-.392.051q-.546,0-4.9,6.54T90.673,22.207q-5.344,9.071-5.342,11.1a1.93,1.93,0,0,0,.05.543c.165.3.376.165.643-.4a125.076,125.076,0,0,1,8.34-15.362Q100.4,8.231,105.611,1.339" transform="translate(-55.447 0)" fill="#fff"/>
    <path id="Path_4" data-name="Path 4" d="M143.811,59.982a45.776,45.776,0,0,1-3.784,3.107,3.686,3.686,0,0,1-2.017.8.5.5,0,0,1-.444-.349,1.385,1.385,0,0,1,.171-.916,25.342,25.342,0,0,1,1.995-3,23.255,23.255,0,0,0,2.188-3.421,4.373,4.373,0,0,0,.466-1.66,5.93,5.93,0,0,0-.051-.916,2.547,2.547,0,0,0-2.854-2.082q-2.461,0-5.022,2.872-.988,1.089-2.9,3.616a12.35,12.35,0,0,0,.886-4.387,2.719,2.719,0,0,0-1.528-2.754,1.164,1.164,0,0,0-.444-.1.348.348,0,0,0-.393.3.389.389,0,0,0,0,.1.407.407,0,0,0,.172.424,1,1,0,0,1,.244.743,2.717,2.717,0,0,1-.221,1.166,19,19,0,0,1-2.017,2.775,11.151,11.151,0,0,1-.911.916c-.409.378-.685.636-.833.766s-.45.406-.91.818-.79.709-.983.892c-.034.028-.039.063-.069.1-.612.555-2.18,1.945-4.8,4.262a19.515,19.515,0,0,1-2.245,1.623,5.212,5.212,0,0,1-1.119.538c-.064.023-.1.023-.16.04-.385-.424-.38-1.27.068-2.581a12.6,12.6,0,0,1,.961-1.911c.444-.744.875-1.442,1.308-2.106s.927-1.368,1.5-2.129,1.085-1.43,1.521-2.008.888-1.15,1.332-1.711.761-.99.958-1.288a3.933,3.933,0,0,0-2.657-1.092,2.594,2.594,0,0,0-1.778.994l-1.824,2.231q-1.823,2.429-4.233,5.058l-1.574,1.539q-1.721,1.588-2.607,1.585c-.33,0-.5-.172-.5-.52a3.214,3.214,0,0,1,.739-1.562q.741-1.038,1.573-2.18c.558-.761,1-1.39,1.331-1.882a9.676,9.676,0,0,0,.886-1.711,4.721,4.721,0,0,0,.392-1.757,2.958,2.958,0,0,0-.244-1.287,2.416,2.416,0,0,0-2.407-1.338,4.48,4.48,0,0,0-2.779.915,24.673,24.673,0,0,0-2.83,2.627,32.346,32.346,0,0,1-2.557,2.477q-.937.772-.937,1.065c0,.395.15.463.464.2s1.171-1.065,2.587-2.4a43.369,43.369,0,0,1,3.295-2.9,3.6,3.6,0,0,1,1.773-.892c.391,0,.591.149.591.447a1.886,1.886,0,0,1-.54,1.092q-4.282,4.806-5.023,7.038a7.068,7.068,0,0,0-.347,1.986q0,2.376,2.513,2.38,3.3,0,8.563-6.837a13.8,13.8,0,0,0-1.575,5.75q0,2.429,1.869,3.072a.427.427,0,0,0,.165.04.059.059,0,0,0,.034.012,2.077,2.077,0,0,0,1.007-.2,9.254,9.254,0,0,0,1.245-.68c.1-.08,5.107-4.006,6.664-5.687l.006-.006c.943-.778,2.068-1.82,3.38-3.147a68.561,68.561,0,0,1-4.38,5.944c-.756.99-1.235,1.637-1.427,1.933a3.888,3.888,0,0,0,2.512,1.042h.2a3.094,3.094,0,0,0,2.04-1.311c.767-.869,2.017-2.552,3.74-5.03a30.248,30.248,0,0,1,4.4-5.3q1.969-1.733,2.881-1.733c.608,0,.91.149.91.446a2.305,2.305,0,0,1-.687,1.242q-4.19,4.754-5.071,7.282a6.309,6.309,0,0,0-.393,2.157,1.866,1.866,0,0,0,.939,1.66q1.525.944,4.233-.447,2.309-1.091,7.085-5.55c.022-.023.035-.051.057-.075.7-.635,1.483-1.378,2.35-2.253a68.349,68.349,0,0,1-4.38,5.944c-.754.99-1.232,1.637-1.426,1.934a3.88,3.88,0,0,0,2.512,1.041h.2a3.093,3.093,0,0,0,2.04-1.31c.768-.87,2.017-2.552,3.739-5.03a30.251,30.251,0,0,1,4.4-5.3q1.969-1.733,2.882-1.733c.608,0,.908.149.908.446a2.292,2.292,0,0,1-.686,1.241q-4.185,4.755-5.068,7.284a6.383,6.383,0,0,0-.394,2.157,1.869,1.869,0,0,0,.938,1.659q1.526.944,4.233-.447,2.312-1.091,7.086-5.55a.713.713,0,0,0,.243-.5c0-.43-.181-.463-.54-.1a54.518,54.518,0,0,1-5.215,4.41,3.682,3.682,0,0,1-2.017.8.5.5,0,0,1-.442-.349,1.368,1.368,0,0,1,.17-.915,25.152,25.152,0,0,1,2-3,23.3,23.3,0,0,0,2.188-3.421,4.348,4.348,0,0,0,.465-1.659,5.886,5.886,0,0,0-.05-.916,2.549,2.549,0,0,0-2.854-2.082q-2.463,0-5.022,2.871-.99,1.091-2.9,3.617a12.388,12.388,0,0,0,.886-4.39A2.728,2.728,0,0,0,150.3,50.9a1.144,1.144,0,0,0-.442-.1.348.348,0,0,0-.394.3.389.389,0,0,0,0,.1.411.411,0,0,0,.173.424.992.992,0,0,1,.244.743,2.753,2.753,0,0,1-.221,1.166,19.1,19.1,0,0,1-2.017,2.775,11.306,11.306,0,0,1-.91.916c-.409.377-.688.635-.835.766" transform="translate(-66.198 -32.753)" fill="#fff"/>
  </g>
</svg>
