<svg xmlns="http://www.w3.org/2000/svg" width="34.107" height="34.168" viewBox="0 0 34.107 34.168">
  <path id="icon_call" d="M22.989,7.628a7.66,7.66,0,0,1,6.051,6.051M22.989,1.5A13.788,13.788,0,0,1,35.168,13.664M33.636,25.889v4.6a3.064,3.064,0,0,1-3.34,3.064,30.318,30.318,0,0,1-13.221-4.7,29.873,29.873,0,0,1-9.192-9.192A30.318,30.318,0,0,1,3.18,6.372a3.064,3.064,0,0,1,3.049-3.34h4.6a3.064,3.064,0,0,1,3.064,2.635,19.67,19.67,0,0,0,1.072,4.3,3.064,3.064,0,0,1-.689,3.232L12.326,15.15a24.512,24.512,0,0,0,9.192,9.192L23.464,22.4a3.064,3.064,0,0,1,3.232-.689A19.67,19.67,0,0,0,31,22.779,3.064,3.064,0,0,1,33.636,25.889Z" transform="translate(-2.167 -0.396)" fill="none" stroke="#fff" stroke-linecap="round" stroke-linejoin="round" stroke-width="2"/>
</svg>
