<svg xmlns="http://www.w3.org/2000/svg" xmlns:xlink="http://www.w3.org/1999/xlink" width="90.138" height="96.154" viewBox="0 0 90.138 96.154">
  <defs>
    <clipPath id="clip-path">
      <rect id="Rectangle_133" data-name="Rectangle 133" width="90.138" height="96.154" fill="none"/>
    </clipPath>
  </defs>
  <g id="Group_161" data-name="Group 161" transform="translate(0 0)">
    <g id="Group_158" data-name="Group 158" transform="translate(0 0)" clip-path="url(#clip-path)">
      <path id="Path_468" data-name="Path 468" d="M221.819,41.041a28.3,28.3,0,0,0-2.881-4.964L248.771,5.819l-21.063.155,5.716-5.8L258.394,0l.177,24.971-5.715,5.8-.143-21.063Z" transform="translate(-168.433)" fill="#1d1d1b"/>
      <path id="Path_469" data-name="Path 469" d="M42.3,96.154V52.817A14.906,14.906,0,0,0,37.984,42.29L5.859,9.706,5.715,30.768,0,24.971.177,0,25.148.177l5.716,5.8L9.8,5.819,41.927,38.4a20.412,20.412,0,0,1,5.911,14.414V96.154Z" fill="#1d1d1b"/>
    </g>
  </g>
</svg>
