<svg id="Group_160" data-name="Group 160" xmlns="http://www.w3.org/2000/svg" xmlns:xlink="http://www.w3.org/1999/xlink" width="120.371" height="110.653" viewBox="0 0 120.371 110.653">
  <defs>
    <clipPath id="clip-path">
      <rect id="Rectangle_134" data-name="Rectangle 134" width="120.371" height="110.653" fill="none"/>
    </clipPath>
  </defs>
  <g id="Group_160-2" data-name="Group 160" transform="translate(0)" clip-path="url(#clip-path)">
    <path id="Path_470" data-name="Path 470" d="M117.948,385.714H2.422a2.422,2.422,0,0,1,0-4.844H117.948a2.422,2.422,0,0,1,0,4.844" transform="translate(0 -293.011)" fill="#1d1d1b"/>
    <path id="Path_471" data-name="Path 471" d="M117.948,463.529H2.422a2.422,2.422,0,1,1,0-4.844H117.948a2.422,2.422,0,1,1,0,4.844" transform="translate(0 -352.876)" fill="#1d1d1b"/>
    <path id="Path_472" data-name="Path 472" d="M226.952,80.123a2.422,2.422,0,0,1-1.82-4.02c.08-.091,8.195-9.515,8.195-20.393,0-5.061-3.207-9.465-6.6-14.128-3.945-5.417-8.024-11.018-8.024-18.5A31.066,31.066,0,0,1,228.34.586,2.422,2.422,0,0,1,231.5,4.253a26.642,26.642,0,0,0-7.959,18.83c0,5.9,3.447,10.637,7.1,15.648,3.7,5.084,7.531,10.342,7.531,16.979,0,12.732-9.014,23.151-9.4,23.588a2.417,2.417,0,0,1-1.821.824" transform="translate(-168.251 0)" fill="#1d1d1b"/>
    <path id="Path_473" data-name="Path 473" d="M376.952,80.123a2.422,2.422,0,0,1-1.82-4.02c.08-.091,8.195-9.515,8.195-20.393,0-5.061-3.207-9.465-6.6-14.128-3.945-5.417-8.024-11.018-8.024-18.5a31.066,31.066,0,0,1,9.638-22.5A2.422,2.422,0,0,1,381.5,4.253a26.642,26.642,0,0,0-7.959,18.83c0,5.9,3.447,10.637,7.1,15.648,3.7,5.084,7.531,10.342,7.531,16.979,0,12.732-9.014,23.151-9.4,23.588a2.417,2.417,0,0,1-1.821.824" transform="translate(-283.649 0)" fill="#1d1d1b"/>
    <path id="Path_474" data-name="Path 474" d="M76.952,80.123a2.422,2.422,0,0,1-1.82-4.02c.08-.091,8.195-9.515,8.195-20.393,0-5.061-3.207-9.465-6.6-14.128C72.78,36.166,68.7,30.564,68.7,23.083A31.066,31.066,0,0,1,78.34.586,2.422,2.422,0,0,1,81.5,4.253a26.642,26.642,0,0,0-7.959,18.83c0,5.9,3.447,10.637,7.1,15.648,3.7,5.084,7.531,10.342,7.531,16.979,0,12.732-9.014,23.151-9.4,23.588a2.417,2.417,0,0,1-1.821.824" transform="translate(-52.853 0)" fill="#1d1d1b"/>
  </g>
</svg>
