<svg xmlns="http://www.w3.org/2000/svg" xmlns:xlink="http://www.w3.org/1999/xlink" width="75.652" height="80" viewBox="0 0 75.652 80">
  <defs>
    <clipPath id="clip-path">
      <rect id="Rectangle_11" data-name="Rectangle 11" width="75.652" height="80" fill="#fff"/>
    </clipPath>
  </defs>
  <g id="ic_clean" transform="translate(0 0)">
    <g id="Group_11" data-name="Group 11" transform="translate(0 0)">
      <g id="Group_10" data-name="Group 10" clip-path="url(#clip-path)">
        <path id="Line_1" data-name="Line 1" d="M2.255,12.049H-.375V0h2.63Z" transform="translate(4.123 52.277)" fill="#fff"/>
        <path id="Line_2" data-name="Line 2" d="M9.7,2.255H0V-.375H9.7Z" transform="translate(0 57.361)" fill="#fff"/>
        <path id="Line_3" data-name="Line 3" d="M2.255,12.129H-.375V0h2.63Z" transform="translate(20.166 1.133)" fill="#fff"/>
      </g>
    </g>
    <path id="Line_4" data-name="Line 4" d="M12.465,2.981H0V-.375H12.465Z" transform="translate(15.354 7.88)" fill="#fff"/>
    <path id="Line_5" data-name="Line 5" d="M2.981,15.476H-.375V0H2.981Z" transform="translate(68.367 44.828)" fill="#fff"/>
    <g id="Group_13" data-name="Group 13" transform="translate(0 0)">
      <g id="Group_12" data-name="Group 12" clip-path="url(#clip-path)">
        <path id="Line_6" data-name="Line 6" d="M9.769,2.255H0V-.375H9.769Z" transform="translate(65.866 52.278)" fill="#fff"/>
        <path id="Path_9" data-name="Path 9" d="M28.463,32.148a16.075,16.075,0,1,1,13.932-8.038A16.075,16.075,0,0,1,28.463,32.148ZM28.492,2.63A13.494,13.494,0,0,0,16.835,9.355,13.445,13.445,0,0,0,28.463,29.518a13.445,13.445,0,0,0,13-16.924A13.446,13.446,0,0,0,28.492,2.63Z" transform="translate(31.1 0)" fill="#fff"/>
        <path id="Path_10" data-name="Path 10" d="M13.7,59.985a7.614,7.614,0,0,1-3.823-1.014,7.845,7.845,0,0,1-3.66-4.977,10.21,10.21,0,0,1,1.361-7.81L32.187,6.923l2.228,1.4L9.809,47.58a7.569,7.569,0,0,0-1.038,5.78,5.068,5.068,0,0,0,6.52,3.766,7.566,7.566,0,0,0,4.487-3.791L41.481,12.4,43.8,13.63,22.1,54.567a10.206,10.206,0,0,1-6.084,5.087A8.379,8.379,0,0,1,13.7,59.985Z" transform="translate(14.908 17.354)" fill="#fff"/>
        <path id="Line_7" data-name="Line 7" d="M1.953,9.947-.325,8.632,4.767-.187,7.044,1.127Z" transform="translate(22.234 70.052)" fill="#fff"/>
        <path id="Line_8" data-name="Line 8" d="M11.2,7.792-.17,2.01,1.022-.334,12.391,5.448Z" transform="translate(41.999 47.394)" fill="#fff"/>
        <path id="Line_9" data-name="Line 9" d="M11.2,7.792-.17,2.01,1.022-.334,12.391,5.448Z" transform="translate(38.652 53.974)" fill="#fff"/>
        <path id="Line_10" data-name="Line 10" d="M11.2,7.792-.17,2.01,1.022-.334,12.391,5.448Z" transform="translate(35.232 60.701)" fill="#fff"/>
        <path id="Line_11" data-name="Line 11" d="M7.62,11.4-.294,1.4,1.768-.233l7.914,10Z" transform="translate(30.954 66.082)" fill="#fff"/>
        <path id="Line_12" data-name="Line 12" d="M10.487,8.847-.2,1.89,1.23-.314,11.922,6.643Z" transform="translate(29.856 39.699)" fill="#fff"/>
        <path id="Line_13" data-name="Line 13" d="M10.487,8.847-.2,1.89,1.23-.314,11.922,6.643Z" transform="translate(25.831 45.887)" fill="#fff"/>
        <path id="Line_14" data-name="Line 14" d="M10.487,8.844-.2,1.89l1.434-2.2L11.921,6.639Z" transform="translate(21.716 52.216)" fill="#fff"/>
        <path id="Line_15" data-name="Line 15" d="M12.566,4.083-.054,2.231l.382-2.6L12.948,1.48Z" transform="translate(17.706 63.175)" fill="#fff"/>
      </g>
    </g>
  </g>
</svg>
