<svg xmlns="http://www.w3.org/2000/svg" xmlns:xlink="http://www.w3.org/1999/xlink" width="32.91" height="80" viewBox="0 0 32.91 80">
  <defs>
    <clipPath id="clip-path">
      <rect id="Rectangle_13" data-name="Rectangle 13" width="32.91" height="80" fill="#fff"/>
    </clipPath>
  </defs>
  <g id="ic_heats" transform="translate(0 0)">
    <g id="Group_15" data-name="Group 15" transform="translate(0 0)" clip-path="url(#clip-path)">
      <path id="Path_9" data-name="Path 9" d="M3.1,28.936H.368a10.989,10.989,0,0,1,1.291-5.415,8.331,8.331,0,0,0,1.023-4.235,8.331,8.331,0,0,0-1.023-4.235A10.989,10.989,0,0,1,.368,9.636,10.963,10.963,0,0,1,1.66,4.227,8.306,8.306,0,0,0,2.682,0H5.411A10.963,10.963,0,0,1,4.12,5.409,8.306,8.306,0,0,0,3.1,9.636,8.331,8.331,0,0,0,4.12,13.871a10.989,10.989,0,0,1,1.291,5.415A10.989,10.989,0,0,1,4.12,24.7,8.331,8.331,0,0,0,3.1,28.936Z" transform="translate(0.971 0)" fill="#fff"/>
      <path id="Path_10" data-name="Path 10" d="M6.515,28.936H3.786a10.989,10.989,0,0,1,1.291-5.415A8.331,8.331,0,0,0,6.1,19.286a8.331,8.331,0,0,0-1.023-4.235A10.989,10.989,0,0,1,3.786,9.636,10.963,10.963,0,0,1,5.078,4.227,8.306,8.306,0,0,0,6.1,0H8.829A10.963,10.963,0,0,1,7.538,5.409,8.306,8.306,0,0,0,6.515,9.636a8.331,8.331,0,0,0,1.023,4.235,10.989,10.989,0,0,1,1.291,5.415A10.989,10.989,0,0,1,7.538,24.7,8.331,8.331,0,0,0,6.515,28.936Z" transform="translate(9.991 0)" fill="#fff"/>
      <path id="Path_11" data-name="Path 11" d="M9.933,28.936H7.2A10.989,10.989,0,0,1,8.5,23.521a8.331,8.331,0,0,0,1.023-4.235A8.331,8.331,0,0,0,8.5,15.051,10.989,10.989,0,0,1,7.2,9.636,10.963,10.963,0,0,1,8.5,4.227,8.306,8.306,0,0,0,9.518,0h2.729a10.963,10.963,0,0,1-1.292,5.409A8.306,8.306,0,0,0,9.933,9.636a8.331,8.331,0,0,0,1.023,4.235,10.989,10.989,0,0,1,1.291,5.415A10.989,10.989,0,0,1,10.956,24.7,8.331,8.331,0,0,0,9.933,28.936Z" transform="translate(19.01 0)" fill="#fff"/>
      <path id="Path_12" data-name="Path 12" d="M3.1,42.969H.368a10.989,10.989,0,0,1,1.291-5.415,8.331,8.331,0,0,0,1.023-4.235,8.331,8.331,0,0,0-1.023-4.235A10.989,10.989,0,0,1,.368,23.669,10.963,10.963,0,0,1,1.66,18.26a8.306,8.306,0,0,0,1.023-4.227H5.411A10.963,10.963,0,0,1,4.12,19.442,8.306,8.306,0,0,0,3.1,23.669,8.33,8.33,0,0,0,4.12,27.9a10.99,10.99,0,0,1,1.291,5.415A10.989,10.989,0,0,1,4.12,38.734,8.331,8.331,0,0,0,3.1,42.969Z" transform="translate(0.971 37.031)" fill="#fff"/>
      <path id="Path_13" data-name="Path 13" d="M6.515,42.969H3.786a10.989,10.989,0,0,1,1.291-5.415A8.331,8.331,0,0,0,6.1,33.319a8.331,8.331,0,0,0-1.023-4.235,10.989,10.989,0,0,1-1.291-5.415A10.963,10.963,0,0,1,5.078,18.26,8.306,8.306,0,0,0,6.1,14.033H8.829a10.963,10.963,0,0,1-1.292,5.409,8.306,8.306,0,0,0-1.023,4.227A8.33,8.33,0,0,0,7.538,27.9a10.99,10.99,0,0,1,1.291,5.415,10.989,10.989,0,0,1-1.291,5.415A8.331,8.331,0,0,0,6.515,42.969Z" transform="translate(9.991 37.031)" fill="#fff"/>
      <path id="Path_14" data-name="Path 14" d="M9.933,42.969H7.2A10.989,10.989,0,0,1,8.5,37.554a8.331,8.331,0,0,0,1.023-4.235A8.331,8.331,0,0,0,8.5,29.084,10.989,10.989,0,0,1,7.2,23.669,10.963,10.963,0,0,1,8.5,18.26a8.306,8.306,0,0,0,1.023-4.227h2.729a10.963,10.963,0,0,1-1.292,5.409,8.306,8.306,0,0,0-1.023,4.227A8.33,8.33,0,0,0,10.956,27.9a10.99,10.99,0,0,1,1.291,5.415,10.989,10.989,0,0,1-1.291,5.415A8.331,8.331,0,0,0,9.933,42.969Z" transform="translate(19.01 37.031)" fill="#fff"/>
      <path id="Line_1" data-name="Line 1" d="M32.91,2.354H0V-.375H32.91Z" transform="translate(0 39.011)" fill="#fff"/>
    </g>
  </g>
</svg>
