<svg xmlns="http://www.w3.org/2000/svg" xmlns:xlink="http://www.w3.org/1999/xlink" width="77.688" height="80" viewBox="0 0 77.688 80">
  <defs>
    <clipPath id="clip-path">
      <rect id="Rectangle_14" data-name="Rectangle 14" width="77.688" height="80" fill="#fff"/>
    </clipPath>
  </defs>
  <g id="ic_time" transform="translate(0 0)">
    <g id="Group_17" data-name="Group 17" transform="translate(0 0)" clip-path="url(#clip-path)">
      <path id="Path_9" data-name="Path 9" d="M21.986,63.781H0V30.791H20.262l0-27.322H1.724V.021H23.7l.005,34.217H3.447v26.1H21.986Z" transform="translate(0 0.077)" fill="#fff"/>
      <path id="Path_10" data-name="Path 10" d="M25.463,27.79H15.571V24.342h6.444V15.88H13.848V.021H23.74V3.469H17.3v8.963h8.168Z" transform="translate(49.805 0.077)" fill="#fff"/>
      <path id="Path_11" data-name="Path 11" d="M18.778,63.953H6.923V0H30.633v46.49H27.185V3.448H10.371V60.506h8.407Z" transform="translate(24.901 0.001)" fill="#fff"/>
      <path id="Ellipse_1" data-name="Ellipse 1" d="M17.492-.375A17.867,17.867,0,1,1-.375,17.492,17.887,17.887,0,0,1,17.492-.375Zm0,32.287a14.42,14.42,0,1,0-14.42-14.42A14.436,14.436,0,0,0,17.492,31.912Z" transform="translate(42.331 44.641)" fill="#fff"/>
      <path id="Path_12" data-name="Path 12" d="M16.472,23.813,11.72,19.362l2.357-2.516,2.235,2.094,5.955-6.358,2.516,2.357Z" transform="translate(42.153 45.253)" fill="#fff"/>
    </g>
  </g>
</svg>
