<svg id="Group_238" data-name="Group 238" xmlns="http://www.w3.org/2000/svg" xmlns:xlink="http://www.w3.org/1999/xlink" width="110.347" height="105.948" viewBox="0 0 110.347 105.948">
  <defs>
    <clipPath id="clip-path">
      <rect id="Rectangle_174" data-name="Rectangle 174" width="110.347" height="105.948" fill="none"/>
    </clipPath>
  </defs>
  <g id="Group_237" data-name="Group 237" clip-path="url(#clip-path)">
    <path id="Path_503" data-name="Path 503" d="M11.124,204.041A11.117,11.117,0,0,1,0,192.917v-71.5A11.117,11.117,0,0,1,11.124,110.3H71.869l-5.775,5.775H11.124a5.356,5.356,0,0,0-5.35,5.35v71.5a5.356,5.356,0,0,0,5.35,5.35H83.933a5.356,5.356,0,0,0,5.35-5.35V138.482l5.775-3.647v58.083a11.118,11.118,0,0,1-11.124,11.124Z" transform="translate(0 -98.093)" fill="#211e1f"/>
    <path id="Path_504" data-name="Path 504" d="M226.794,85.772c-1.753,0-4.227-1.046-6.055-6.028-.564-1.537-1.1-3.127-1.622-4.664-1.738-5.135-3.534-10.444-6.718-15.158l-.053-.078c-1.923-2.847-4.828-7.15-8.229-8.422a10.1,10.1,0,0,0-1.748-.438c-.175-.032-.4-.074-.588-.117a5.829,5.829,0,0,1,.314-.762,6.9,6.9,0,0,1,3.244-3.178,10.993,10.993,0,0,1,4.891-1.078,11.515,11.515,0,0,1,5.075,1.125c3.3,1.66,5.178,4.7,7.162,7.923.8,1.3,1.628,2.643,2.564,3.91a3.974,3.974,0,0,0,3.136,1.918c2.1,0,3.337-2.058,4.431-3.874.249-.414.485-.8.71-1.139.761-1.126,1.522-2.277,2.259-3.39,1.462-2.209,2.974-4.493,4.532-6.664,3.624-5.049,7.691-10.063,11.192-14.3a135.071,135.071,0,0,1,16.4-17.173c4.329-3.651,8.8-7.427,13.85-10.1.65-.344,1.3-.7,1.935-1.044,1.249-.681,2.54-1.385,3.822-2A22.092,22.092,0,0,1,289.805,0q-.432.427-.865.859c-.955.954-1.919,1.935-2.866,2.916-1.863,1.93-3.743,3.945-5.587,5.991-1.8,1.995-3.615,4.074-5.4,6.18-1.735,2.05-3.488,4.184-5.211,6.343-1.675,2.1-3.367,4.279-5.029,6.48-1.613,2.136-3.245,4.353-4.85,6.59-1.555,2.167-3.128,4.413-4.675,6.675q-.493.721-.983,1.444c-6.772,10-12.568,20.672-18.174,31-.953,1.755-1.938,3.57-2.913,5.354-.238.434-.465.892-.685,1.335-.85,1.711-1.654,3.326-3.049,3.952a6.735,6.735,0,0,1-2.725.658" transform="translate(-179.458)" fill="#211e1f"/>
  </g>
</svg>
