<svg xmlns="http://www.w3.org/2000/svg" width="73.185" height="93.995" viewBox="0 0 73.185 93.995">
  <g id="Group_141" data-name="Group 141" transform="translate(0 0.25)">
    <line id="Line_20" data-name="Line 20" x1="11.826" transform="translate(43.794 42.646)" fill="#e50019" stroke="#707070" stroke-width="0.5"/>
    <line id="Line_21" data-name="Line 21" x1="11.826" transform="translate(43.794 42.646)" fill="none" stroke="#1a1818" stroke-width="0.5"/>
    <path id="Path_195" data-name="Path 195" d="M436.344,825.808h.989a4.749,4.749,0,0,1-.5,1.7l4.756-2.046c-1.588-.676-3.162-1.354-4.756-2.037a4.723,4.723,0,0,1,.5,1.7h-.989Z" transform="translate(-382.074 -782.821)" fill="#1a1818" fill-rule="evenodd"/>
    <path id="Path_196" data-name="Path 196" d="M436.946,800.361h17.638l.046.092v93.2l-.208.206H437.037l-.2-.2V800.453Z" transform="translate(-381.695 -800.361)" fill="none" stroke="#1a1818" stroke-linejoin="bevel" stroke-width="0.5"/>
    <line id="Line_22" data-name="Line 22" x2="4.237" transform="translate(55.148 0.115)" fill="none" stroke="#1a1818" stroke-linejoin="bevel" stroke-width="0.25"/>
    <path id="Path_197" data-name="Path 197" d="M439.256,800.361v17.024a4.861,4.861,0,0,0,.459,2.45,4.549,4.549,0,0,0,4.179,2.665,4.27,4.27,0,0,0,4.158-2.412,5.779,5.779,0,0,0,.528-2.679V800.384" transform="translate(-379.872 -800.361)" fill="none" stroke="#1a1818" stroke-linejoin="bevel" stroke-width="0.5"/>
    <line id="Line_23" data-name="Line 23" x1="4.227" transform="translate(68.708 0.092)" fill="none" stroke="#1a1818" stroke-linejoin="bevel" stroke-width="0.25"/>
    <path id="Path_198" data-name="Path 198" d="M439.329,800.384v17.373a5.065,5.065,0,0,0,.183,1.345,4.505,4.505,0,0,0,2.711,2.986,4.579,4.579,0,0,0,4.41-.6,4.886,4.886,0,0,0,1.767-3.308c.116-.88,0-17.821,0-17.821" transform="translate(-379.805 -800.361)" fill="none" stroke="#1a1818" stroke-linejoin="bevel" stroke-width="0.5"/>
    <line id="Line_24" data-name="Line 24" x2="9.094" transform="translate(59.523 0.184)" fill="none" stroke="#1a1818" stroke-linejoin="bevel" stroke-width="0.25"/>
    <path id="Path_199" data-name="Path 199" d="M444.8,808.7s-.007.137-.183.137h-3.676a.17.17,0,0,1-.183-.183v-.688a.228.228,0,0,0,0-.231l1.929-3.308h.183l1.883,3.262s-.049.072.046.137Z" transform="translate(-378.714 -797.267)" fill="none" stroke="#1a1818" stroke-linejoin="bevel" stroke-width="0.5"/>
    <path id="Path_200" data-name="Path 200" d="M440.933,808.7c-.091,0-.091-.114-.091-.114v-.736a.3.3,0,0,0,.091-.183l1.746-3.077,1.836,3.077s-.048.074.046.183v.827" transform="translate(-378.654 -797.147)" fill="none" stroke="#1a1818" stroke-linejoin="bevel" stroke-width="0.5"/>
    <rect id="Rectangle_106" data-name="Rectangle 106" width="4.089" height="1.093" rx="0.269" transform="translate(62.002 12.379)" fill="none" stroke="#1a1818" stroke-linejoin="bevel" stroke-width="0.5"/>
    <rect id="Rectangle_107" data-name="Rectangle 107" width="4.089" height="1.093" rx="0.269" transform="translate(62.002 14.175)" fill="none" stroke="#1a1818" stroke-linejoin="bevel" stroke-width="0.5"/>
    <path id="Path_201" data-name="Path 201" d="M443.241,830.123h0a3.076,3.076,0,0,1-3.066-3.067v-4a3.066,3.066,0,0,1,6.133,0v4A3.076,3.076,0,0,1,443.241,830.123Z" transform="translate(-379.161 -785.432)" fill="none" stroke="#1a1818" stroke-linejoin="bevel" stroke-width="0.5"/>
    <path id="Path_202" data-name="Path 202" d="M443.1,847.336h0a2.737,2.737,0,0,1-2.728-2.729v-5.857a2.729,2.729,0,0,1,5.457,0v5.857A2.737,2.737,0,0,1,443.1,847.336Z" transform="translate(-379.015 -773.246)" fill="none" stroke="#1a1818" stroke-linejoin="bevel" stroke-width="0.5"/>
    <path id="Path_203" data-name="Path 203" d="M442.344,821.009a.321.321,0,1,1-.322-.322A.322.322,0,0,1,442.344,821.009Z" transform="translate(-378 -784.907)" fill="none" stroke="#1a1818" stroke-linejoin="bevel" stroke-width="0.5"/>
    <line id="Line_25" data-name="Line 25" x2="17.786" transform="translate(55.148 93.299)" fill="none" stroke="#1a1818" stroke-linejoin="bevel" stroke-width="0.5"/>
    <path id="Path_204" data-name="Path 204" d="M442.5,837.722a.414.414,0,1,1-.414-.414A.413.413,0,0,1,442.5,837.722Z" transform="translate(-378.019 -772.269)" fill="none" stroke="#1a1818" stroke-linejoin="bevel" stroke-width="0.5"/>
    <path id="Path_205" data-name="Path 205" d="M442.5,839.445a.414.414,0,1,1-.414-.414A.413.413,0,0,1,442.5,839.445Z" transform="translate(-378.019 -770.959)" fill="none" stroke="#1a1818" stroke-linejoin="bevel" stroke-width="0.5"/>
    <path id="Path_206" data-name="Path 206" d="M442.5,841.167a.414.414,0,1,1-.414-.414A.413.413,0,0,1,442.5,841.167Z" transform="translate(-378.019 -769.65)" fill="none" stroke="#1a1818" stroke-linejoin="bevel" stroke-width="0.5"/>
    <path id="Path_207" data-name="Path 207" d="M444.823,848.851h0a6.778,6.778,0,0,1-6.777-6.777V800.361H451.6v41.713A6.778,6.778,0,0,1,444.823,848.851Z" transform="translate(-380.779 -800.361)" fill="none" stroke="#1a1818" stroke-linejoin="bevel" stroke-width="0.5"/>
    <text id="POWER" transform="translate(0 40.279)" fill="#1a1818" font-size="9" font-family="Poppins-Bold, Poppins" font-weight="700"><tspan x="0" y="0" letter-spacing="0.024em">P</tspan><tspan y="0" letter-spacing="0.025em">OWE</tspan><tspan y="0">R</tspan></text>
    <text id="BUTTON" transform="translate(0 49.796)" fill="#1a1818" font-size="9" font-family="Poppins-Bold, Poppins" font-weight="700"><tspan x="0" y="0" letter-spacing="0.025em">BUTT</tspan><tspan y="0" letter-spacing="0.024em">O</tspan><tspan y="0">N</tspan></text>
  </g>
</svg>
