<svg xmlns="http://www.w3.org/2000/svg" width="103" height="109.036" viewBox="0 0 103 109.036">
  <g id="Group_357" data-name="Group 357" transform="translate(-478 -1234.364)">
    <text id="TOBACCO_STICK_SLOT" data-name="TOBACCO STICK SLOT" transform="translate(478 1243.364)" fill="#1a1311" font-size="9" font-family="Poppins-Bold, Poppins" font-weight="700"><tspan x="0" y="0" letter-spacing="0.025em">T</tspan><tspan y="0" letter-spacing="0.024em">OB</tspan><tspan y="0" letter-spacing="0.025em">ACCO STICK SL</tspan><tspan y="0" letter-spacing="0.024em">O</tspan><tspan y="0">T</tspan></text>
    <g id="Group_357-2" data-name="Group 357">
      <path id="Path_577" data-name="Path 577" d="M42.572,28.885l.3.148a10.52,10.52,0,0,1-7.317,2.819c-6.33.109-9.376-2.094-10.183-3.362a6.156,6.156,0,0,1-.841-2.817c.1-2.363,2.034-4.617,4.256-5.876a18.189,18.189,0,0,1,8.6-2.38c3.25-.009,4.939.164,6.526.89a3.78,3.78,0,0,1,2.224,2.125,2.882,2.882,0,0,1,.248,1.237l-.693-.15a2.855,2.855,0,0,0-.989-2.027c-1.038-.987-2.968-1.657-7.02-1.631A24.79,24.79,0,0,0,31.1,19.1s-4.061,1.515-5.537,4.647a3.908,3.908,0,0,0,.4,4.349c1.682,2.437,6.267,3.209,9.541,3.165a9.4,9.4,0,0,0,6.575-2.373Z" transform="translate(480.627 1244.79)" fill="none" stroke="#1a1311" stroke-linejoin="bevel" stroke-width="0.5"/>
      <path id="Path_578" data-name="Path 578" d="M27.212,24.742s-.873-1.362.792-3.313A6.3,6.3,0,0,1,33.44,19.4a2.473,2.473,0,0,1,2.275,3.313c-.563,2.326-3.712,3.558-5.537,3.559S27.331,25.293,27.212,24.742Z" transform="translate(482.491 1246.263)" fill="none" stroke="#1a1311" stroke-linejoin="bevel" stroke-width="0.5"/>
      <path id="Path_579" data-name="Path 579" d="M29.346,25.581s-2.175-.445-1.729-2.125a4.532,4.532,0,0,1,2.47-2.819,6.759,6.759,0,0,1,4.154-.3c1.606.475.563,2.841.563,2.841" transform="translate(482.927 1246.856)" fill="none" stroke="#1a1311" stroke-linejoin="bevel" stroke-width="0.5"/>
      <path id="Path_580" data-name="Path 580" d="M38.343,19.818s.04,3.536-3.559,7.242" transform="translate(488.415 1246.615)" fill="none" stroke="#1a1311" stroke-linejoin="bevel" stroke-width="0.5"/>
      <path id="Path_581" data-name="Path 581" d="M46.105,19.242l29.919,65,.459.994a4.345,4.345,0,0,1,.148,2.917,11.382,11.382,0,0,1-7.761,8.3s-3.2,1.281-9.545-.626c0,0-2.734-.839-3.506-2.338L24.725,26.311" transform="translate(480.776 1246.177)" fill="none" stroke="#1a1311" stroke-linejoin="bevel" stroke-width="0.5"/>
      <path id="Path_582" data-name="Path 582" d="M46.209,21.576l5.635,12.251a15.7,15.7,0,0,1,1.087,3.865,5.626,5.626,0,0,1-1.383,4.5c-1.133,1.07-2.7.389-3.51-1.376S42.7,28.943,42.7,28.943h-.593c-4.036,3.42-8.552,2.62-12.161,1.779s-5.291-3.262-5.19-5.116a7.078,7.078,0,0,1,3.806-5.611,17.452,17.452,0,0,1,9.7-2.423c3.709.264,4.9.4,6.267,1.483a2.489,2.489,0,0,1,1.186,2.175h.347l.148.347" transform="translate(480.796 1244.881)" fill="none" stroke="#1a1311" stroke-linejoin="bevel" stroke-width="0.5"/>
      <path id="Path_583" data-name="Path 583" d="M38.6,20a11.792,11.792,0,0,1-3.645,7.069" transform="translate(488.543 1246.753)" fill="none" stroke="#1a1311" stroke-linejoin="bevel" stroke-width="0.5"/>
      <path id="Path_584" data-name="Path 584" d="M38.025,24.805h-.348l.2,4.054.3.642a.327.327,0,0,0,.494-.148C38.873,29,40.1,26.387,40.1,26.387l-.2-.593Z" transform="translate(490.612 1250.402)" fill="none" stroke="#1a1311" stroke-linejoin="bevel" stroke-width="0.5"/>
      <path id="Path_585" data-name="Path 585" d="M37.874,24.8l.4,4.054.246.494" transform="translate(490.762 1250.402)" fill="none" stroke="#1a1311" stroke-linejoin="bevel" stroke-width="0.5"/>
      <path id="Path_586" data-name="Path 586" d="M38.223,29.493a.684.684,0,0,1,.049-.507c.134-.3,1.385-2.917,1.385-2.917h.2s.194.04.248.15.2.443.2.443a5.232,5.232,0,0,1-.176.53c-.12.311-1.258,2.535-1.258,2.535s-.125.278-.494.1Z" transform="translate(491.007 1251.362)" fill="none" stroke="#1a1311" stroke-linejoin="bevel" stroke-width="0.5"/>
      <path id="Path_587" data-name="Path 587" d="M38.521,30.091a1.188,1.188,0,0,1,.148-.445c.139-.255,1.434-2.817,1.434-2.817s.283-.028.347.1.2.445.2.445a.925.925,0,0,1-.1.47c-.13.331-1.26,2.6-1.26,2.6a.306.306,0,0,1-.273.148.73.73,0,0,1-.3-.049Z" transform="translate(491.253 1251.937)" fill="none" stroke="#1a1311" stroke-linejoin="bevel" stroke-width="0.5"/>
      <path id="Path_588" data-name="Path 588" d="M38.226,27.788s.42-.148.618.593" transform="translate(491.029 1252.658)" fill="none" stroke="#1a1311" stroke-linejoin="bevel" stroke-width="0.5"/>
      <path id="Path_589" data-name="Path 589" d="M38.577,28.528s.331-.246.667.642" transform="translate(491.296 1253.205)" fill="none" stroke="#1a1311" stroke-linejoin="bevel" stroke-width="0.5"/>
      <path id="Path_590" data-name="Path 590" d="M44.995,35.889s-.435-.878-1.087-.544S42.44,37.907,42.375,39.1a4.506,4.506,0,0,0,.568,2.581c.4.887.964,2.166.964,2.166a1.25,1.25,0,0,0,2.125.445c1.392-1.233.989-3.376.691-4.648,0,0-.308-.677-.417-.913S44.995,35.889,44.995,35.889Z" transform="translate(494.171 1258.349)" fill="none" stroke="#1a1311" stroke-linejoin="bevel" stroke-width="0.5"/>
      <path id="Path_591" data-name="Path 591" d="M44.488,35.361s-.4-.246-.815.4a8.07,8.07,0,0,0-1.186,3.461,7.007,7.007,0,0,0,1.038,3.38l.544,1.316a1.3,1.3,0,0,0,1.434.64" transform="translate(494.258 1258.383)" fill="none" stroke="#1a1311" stroke-linejoin="bevel" stroke-width="0.5"/>
      <path id="Path_592" data-name="Path 592" d="M43.373,36.4s-.116-.12-.246.1a.464.464,0,0,0,0,.445s.15.183.246-.1A.557.557,0,0,0,43.373,36.4Z" transform="translate(494.706 1259.178)" fill="none" stroke="#1a1311" stroke-linejoin="bevel" stroke-width="0.5"/>
      <path id="Path_593" data-name="Path 593" d="M43.4,36.564s-.032.213-.324.1" transform="translate(494.711 1259.332)" fill="none" stroke="#1a1311" stroke-linejoin="bevel" stroke-width="0.5"/>
      <path id="Path_594" data-name="Path 594" d="M48.884,48.59c0,.225-.1.408-.222.408s-.223-.183-.223-.408.1-.408.223-.408S48.884,48.365,48.884,48.59Z" transform="translate(498.784 1268.154)" fill="none" stroke="#1a1311" stroke-linejoin="bevel" stroke-width="0.5"/>
      <path id="Path_595" data-name="Path 595" d="M49.46,49.805c0,.225-.1.408-.222.408s-.223-.183-.223-.408.1-.408.223-.408S49.46,49.58,49.46,49.805Z" transform="translate(499.222 1269.077)" fill="none" stroke="#1a1311" stroke-linejoin="bevel" stroke-width="0.5"/>
      <path id="Path_596" data-name="Path 596" d="M50.05,51.027c0,.225-.1.408-.222.408s-.223-.183-.223-.408.1-.408.223-.408S50.05,50.8,50.05,51.027Z" transform="translate(499.67 1270.005)" fill="none" stroke="#1a1311" stroke-linejoin="bevel" stroke-width="0.5"/>
      <path id="Path_597" data-name="Path 597" d="M29.5,25.443l5.665-.172a4.135,4.135,0,0,1,3.887,2.412l11.2,24.452a4.658,4.658,0,0,0,7.986.822c.867-1.305.4-3.193-.1-4.281l-2.19-4.757" transform="translate(484.4 1250.754)" fill="none" stroke="#1a1311" stroke-linejoin="bevel" stroke-width="0.5"/>
      <path id="Path_598" data-name="Path 598" d="M52.393,56.171h0a1.358,1.358,0,0,1-2.312-.385l-2.391-5.3a2.961,2.961,0,0,1,.709-3.167,1.359,1.359,0,0,1,2.312.385L53.1,53A2.96,2.96,0,0,1,52.393,56.171Z" transform="translate(498.064 1267.136)" fill="none" stroke="#1a1311" stroke-linejoin="bevel" stroke-width="0.5"/>
      <path id="Path_599" data-name="Path 599" d="M30.625,9.417V25.644a5.6,5.6,0,0,1-1.7-.412c.684,1.321,1.362,2.632,2.043,3.952.679-1.32,1.356-2.627,2.037-3.952a5.558,5.558,0,0,1-1.7.412V9.417Z" transform="translate(483.964 1238.716)" fill="#1a1311" fill-rule="evenodd"/>
    </g>
  </g>
</svg>
