<svg xmlns="http://www.w3.org/2000/svg" width="66.879" height="59.218" viewBox="0 0 66.879 59.218">
  <g id="Group_143" data-name="Group 143" transform="translate(0.25 0.25)">
    <g id="Group_358" data-name="Group 358">
      <line id="Line_145" data-name="Line 145" x1="11.051" transform="translate(7.598 32.2)" fill="none" stroke="#070202" stroke-linecap="round" stroke-linejoin="round" stroke-width="0.5"/>
      <path id="Path_369" data-name="Path 369" d="M280.475,825.112a6.185,6.185,0,0,0,4.418-1.822,6.086,6.086,0,0,0,1.82-4.413,6.166,6.166,0,0,0-.466-2.378,6.272,6.272,0,0,0-1.354-2.007,6.072,6.072,0,0,0-2.04-1.36,6.22,6.22,0,0,0-2.378-.494" transform="translate(-220.95 -796.738)" fill="none" stroke="#070202" stroke-linecap="round" stroke-linejoin="round" stroke-width="0.5"/>
      <path id="Path_370" data-name="Path 370" d="M280.967,809.363a1.391,1.391,0,0,1-1.264.835" transform="translate(-221.875 -800.66)" fill="none" stroke="#070202" stroke-linecap="round" stroke-linejoin="round" stroke-width="0.5"/>
      <line id="Line_146" data-name="Line 146" x1="6.886" transform="translate(59.091 8.704)" fill="none" stroke="#070202" stroke-linecap="round" stroke-linejoin="round" stroke-width="0.5"/>
      <path id="Path_371" data-name="Path 371" d="M283.72,809.223a.31.31,0,0,1-.31.307" transform="translate(-217.435 -800.827)" fill="none" stroke="#070202" stroke-linecap="round" stroke-linejoin="round" stroke-width="0.5"/>
      <line id="Line_147" data-name="Line 147" y2="7.253" transform="translate(66.286 1.144)" fill="none" stroke="#070202" stroke-linecap="round" stroke-linejoin="round" stroke-width="0.5"/>
      <path id="Path_372" data-name="Path 372" d="M283.411,805.782a.337.337,0,0,1,.31.312" transform="translate(-217.434 -804.949)" fill="none" stroke="#070202" stroke-linecap="round" stroke-linejoin="round" stroke-width="0.5"/>
      <line id="Line_148" data-name="Line 148" x2="6.886" transform="translate(59.092 0.833)" fill="none" stroke="#070202" stroke-linecap="round" stroke-linejoin="round" stroke-width="0.5"/>
      <path id="Path_373" data-name="Path 373" d="M279.7,805.4a1.435,1.435,0,0,1,1.262.831" transform="translate(-221.875 -805.402)" fill="none" stroke="#070202" stroke-linecap="round" stroke-linejoin="round" stroke-width="0.5"/>
      <line id="Line_149" data-name="Line 149" x2="10.558" transform="translate(47.27 0.001)" fill="none" stroke="#070202" stroke-linecap="round" stroke-linejoin="round" stroke-width="0.5"/>
      <path id="Path_374" data-name="Path 374" d="M274.253,806.821a1.431,1.431,0,0,1,1.42-1.417" transform="translate(-228.402 -805.403)" fill="none" stroke="#070202" stroke-linecap="round" stroke-linejoin="round" stroke-width="0.5"/>
      <line id="Line_150" data-name="Line 150" x1="52.673" transform="translate(6.853 15.899)" fill="none" stroke="#070202" stroke-linecap="round" stroke-linejoin="round" stroke-width="0.5"/>
      <path id="Path_375" data-name="Path 375" d="M273.325,807.6h2.04v-1.547" transform="translate(-229.514 -804.631)" fill="none" stroke="#070202" stroke-linecap="round" stroke-linejoin="round" stroke-width="0.5"/>
      <path id="Path_376" data-name="Path 376" d="M273.1,807.214a.483.483,0,0,1,.5-.461" transform="translate(-229.785 -803.787)" fill="none" stroke="#070202" stroke-linecap="round" stroke-linejoin="round" stroke-width="0.5"/>
      <path id="Path_377" data-name="Path 377" d="M256.509,807.241h36.462v-.279" transform="translate(-249.656 -803.536)" fill="none" stroke="#070202" stroke-linecap="round" stroke-linejoin="round" stroke-width="0.5"/>
      <path id="Path_378" data-name="Path 378" d="M255.4,818.788a6.62,6.62,0,0,1-1.481-2.224,6.861,6.861,0,0,1-.527-2.622A7.065,7.065,0,0,1,255.4,809.1a7.2,7.2,0,0,1,2.224-1.484,6.87,6.87,0,0,1,2.62-.523" transform="translate(-253.391 -803.384)" fill="none" stroke="#070202" stroke-linecap="round" stroke-linejoin="round" stroke-width="0.5"/>
      <line id="Line_151" data-name="Line 151" x1="0.031" transform="translate(2.009 15.404)" fill="none" stroke="#070202" stroke-linecap="round" stroke-linejoin="round" stroke-width="0.5"/>
      <path id="Path_379" data-name="Path 379" d="M259.132,814.421a6.84,6.84,0,0,1-2.622-.523,6.511,6.511,0,0,1-2.191-1.486" transform="translate(-252.279 -797.008)" fill="none" stroke="#070202" stroke-linecap="round" stroke-linejoin="round" stroke-width="0.5"/>
      <line id="Line_152" data-name="Line 152" x1="52.673" transform="translate(6.853 17.412)" fill="none" stroke="#070202" stroke-linecap="round" stroke-linejoin="round" stroke-width="0.5"/>
      <path id="Path_380" data-name="Path 380" d="M280.475,822.8a4.547,4.547,0,0,0,1.82-.371,4.947,4.947,0,0,0,1.514-1.018,4.536,4.536,0,0,0,1.391-3.365,4.978,4.978,0,0,0-.341-1.789,5.112,5.112,0,0,0-1.051-1.547,4.949,4.949,0,0,0-1.514-1.017,4.543,4.543,0,0,0-1.82-.369" transform="translate(-220.95 -795.913)" fill="none" stroke="#070202" stroke-linecap="round" stroke-linejoin="round" stroke-width="0.5"/>
      <line id="Line_153" data-name="Line 153" x2="36.462" transform="translate(23.063 26.89)" fill="none" stroke="#070202" stroke-linecap="round" stroke-linejoin="round" stroke-width="0.5"/>
      <rect id="Rectangle_113" data-name="Rectangle 113" width="6.453" height="6.637" transform="translate(59.215 1.453)" fill="none" stroke="#070202" stroke-linecap="round" stroke-linejoin="round" stroke-width="0.5"/>
      <path id="Path_381" data-name="Path 381" d="M259.419,818.458a4.971,4.971,0,0,1-2.035-.4,5.449,5.449,0,0,1-1.76-1.141,5.367,5.367,0,0,1-1.141-1.76,4.988,4.988,0,0,1-.4-2.037,5.073,5.073,0,0,1,.4-2.035,4.914,4.914,0,0,1,1.141-1.732,6.067,6.067,0,0,1,1.76-1.171,5.532,5.532,0,0,1,2.035-.4" transform="translate(-252.565 -802.56)" fill="none" stroke="#070202" stroke-linecap="round" stroke-linejoin="round" stroke-width="0.5"/>
      <path id="Path_382" data-name="Path 382" d="M256.509,808.264h36.462v-.895H256.509" transform="translate(-249.656 -803.047)" fill="none" stroke="#070202" stroke-linecap="round" stroke-linejoin="round" stroke-width="0.5"/>
      <path id="Path_383" data-name="Path 383" d="M259.906,807.369a6.191,6.191,0,0,0-2.374.492,6.094,6.094,0,0,0-2.04,1.36,6.3,6.3,0,0,0-1.358,2.007,6.243,6.243,0,0,0,1.358,6.791" transform="translate(-253.054 -803.048)" fill="none" stroke="#070202" stroke-linecap="round" stroke-linejoin="round" stroke-width="0.5"/>
      <line id="Line_154" data-name="Line 154" x2="0.033" transform="translate(2.439 14.973)" fill="none" stroke="#070202" stroke-linecap="round" stroke-linejoin="round" stroke-width="0.5"/>
      <line id="Line_155" data-name="Line 155" x1="10.558" transform="translate(47.27 9.539)" fill="none" stroke="#070202" stroke-linecap="round" stroke-linejoin="round" stroke-width="0.5"/>
      <path id="Path_384" data-name="Path 384" d="M275.672,810.5a1.407,1.407,0,0,1-1.42-1.389" transform="translate(-228.404 -800.962)" fill="none" stroke="#070202" stroke-linecap="round" stroke-linejoin="round" stroke-width="0.5"/>
      <path id="Path_385" data-name="Path 385" d="M275.364,809.954v-1.545h-2.04" transform="translate(-229.515 -801.803)" fill="none" stroke="#070202" stroke-linecap="round" stroke-linejoin="round" stroke-width="0.5"/>
      <path id="Path_386" data-name="Path 386" d="M273.6,808.679a.489.489,0,0,1-.5-.495" transform="translate(-229.785 -802.072)" fill="none" stroke="#070202" stroke-linecap="round" stroke-linejoin="round" stroke-width="0.5"/>
      <path id="Path_387" data-name="Path 387" d="M292.97,808.335v-.277H256.509" transform="translate(-249.656 -802.223)" fill="none" stroke="#070202" stroke-linecap="round" stroke-linejoin="round" stroke-width="0.5"/>
      <path id="Path_388" data-name="Path 388" d="M259.082,808.058a4.726,4.726,0,0,0-3.332,1.389,4.383,4.383,0,0,0-1.048,1.543,4.969,4.969,0,0,0-.341,1.791,5.106,5.106,0,0,0,.341,1.82,5.179,5.179,0,0,0,2.558,2.565,5.187,5.187,0,0,0,1.822.341" transform="translate(-252.229 -802.223)" fill="none" stroke="#070202" stroke-linecap="round" stroke-linejoin="round" stroke-width="0.5"/>
      <path id="Path_389" data-name="Path 389" d="M254.516,812.216a6.061,6.061,0,0,0,4.38,1.822" transform="translate(-252.044 -797.242)" fill="none" stroke="#070202" stroke-linecap="round" stroke-linejoin="round" stroke-width="0.5"/>
      <line id="Line_156" data-name="Line 156" x2="52.672" transform="translate(6.854 16.796)" fill="none" stroke="#070202" stroke-linecap="round" stroke-linejoin="round" stroke-width="0.5"/>
      <path id="Path_390" data-name="Path 390" d="M280.475,813.045a5.535,5.535,0,0,1,2.037.4,6.035,6.035,0,0,1,1.758,1.174,5.253,5.253,0,0,1,1.141,1.73,5.005,5.005,0,0,1,.4,2.037,5.147,5.147,0,0,1-.4,2.066,5.572,5.572,0,0,1-1.141,1.732,5.381,5.381,0,0,1-1.758,1.141,4.994,4.994,0,0,1-2.037.433" transform="translate(-220.95 -796.25)" fill="none" stroke="#070202" stroke-linecap="round" stroke-linejoin="round" stroke-width="0.5"/>
      <line id="Line_157" data-name="Line 157" x2="52.672" transform="translate(6.854 15.284)" fill="none" stroke="#070202" stroke-linecap="round" stroke-linejoin="round" stroke-width="0.5"/>
      <path id="Path_391" data-name="Path 391" d="M280.475,812.357a6.892,6.892,0,0,1,2.624.523,7.259,7.259,0,0,1,2.222,1.512,6.428,6.428,0,0,1,1.486,2.226,6.828,6.828,0,0,1-3.708,8.919,6.853,6.853,0,0,1-2.624.523" transform="translate(-220.95 -797.073)" fill="none" stroke="#070202" stroke-linecap="round" stroke-linejoin="round" stroke-width="0.5"/>
      <path id="Path_392" data-name="Path 392" d="M300.346,818.592H263.885v.125" transform="translate(-240.821 -789.605)" fill="none" stroke="#070202" stroke-linecap="round" stroke-linejoin="round" stroke-width="0.5"/>
      <path id="Path_393" data-name="Path 393" d="M300.346,817.919H263.885v.864" transform="translate(-240.821 -790.411)" fill="none" stroke="#070202" stroke-linecap="round" stroke-linejoin="round" stroke-width="0.5"/>
      <rect id="Rectangle_114" data-name="Rectangle 114" width="1.138" height="1.018" transform="translate(3.06 26.365)" fill="none" stroke="#070202" stroke-linecap="round" stroke-linejoin="round" stroke-width="0.5"/>
      <rect id="Rectangle_115" data-name="Rectangle 115" width="1.138" height="1.02" transform="translate(3.06 28.494)" fill="none" stroke="#070202" stroke-linecap="round" stroke-linejoin="round" stroke-width="0.5"/>
      <rect id="Rectangle_116" data-name="Rectangle 116" width="4.569" height="4.356" transform="translate(1.793 25.745)" fill="none" stroke="#070202" stroke-linecap="round" stroke-linejoin="round" stroke-width="0.5"/>
      <path id="Path_394" data-name="Path 394" d="M258.7,817.609a.553.553,0,0,0,.554.556.538.538,0,0,0,.558-.4" transform="translate(-247.031 -790.783)" fill="none" stroke="#070202" stroke-linecap="round" stroke-linejoin="round" stroke-width="0.5"/>
      <path id="Path_395" data-name="Path 395" d="M261.426,817.68h.925l.8.833h-4.723v-.585l-1.079.739,1.079.71v-.556h3.424l-.8.835H260.1v-.369H259.05v1.048H260.1v-.371h1.02" transform="translate(-248.645 -790.698)" fill="none" stroke="#070202" stroke-linecap="round" stroke-linejoin="round" stroke-width="0.5"/>
      <path id="Path_396" data-name="Path 396" d="M259.067,818.751c.031,0,.062-.029.09-.059" transform="translate(-246.593 -789.486)" fill="none" stroke="#070202" stroke-linecap="round" stroke-linejoin="round" stroke-width="0.5"/>
      <path id="Path_397" data-name="Path 397" d="M259.108,819.281l1.051-1.081h2.2" transform="translate(-246.543 -790.075)" fill="none" stroke="#070202" stroke-linecap="round" stroke-linejoin="round" stroke-width="0.5"/>
      <path id="Path_398" data-name="Path 398" d="M260.585,818.755a.827.827,0,0,0,.831.712.866.866,0,0,0,0-1.732.831.831,0,0,0-.831.712" transform="translate(-244.774 -790.632)" fill="none" stroke="#070202" stroke-linecap="round" stroke-linejoin="round" stroke-width="0.5"/>
      <path id="Path_399" data-name="Path 399" d="M261.631,818.649h-.9l-1.022-1.081" transform="translate(-245.82 -790.833)" fill="none" stroke="#070202" stroke-linecap="round" stroke-linejoin="round" stroke-width="0.5"/>
      <path id="Path_400" data-name="Path 400" d="M259.779,817.6a.246.246,0,0,0-.123-.059" transform="translate(-245.887 -790.864)" fill="none" stroke="#070202" stroke-linecap="round" stroke-linejoin="round" stroke-width="0.5"/>
      <line id="Line_158" data-name="Line 158" x1="0.987" transform="translate(12.782 26.675)" fill="none" stroke="#070202" stroke-linecap="round" stroke-linejoin="round" stroke-width="0.5"/>
      <path id="Path_401" data-name="Path 401" d="M259.813,817.777a.564.564,0,0,0-.556-.435.586.586,0,0,0-.556.587" transform="translate(-247.031 -791.103)" fill="none" stroke="#070202" stroke-linecap="round" stroke-linejoin="round" stroke-width="0.5"/>
      <rect id="Rectangle_117" data-name="Rectangle 117" width="1.699" height="2.132" transform="translate(61.714 2.158)" fill="none" stroke="#070202" stroke-linecap="round" stroke-linejoin="round" stroke-width="0.5"/>
      <rect id="Rectangle_118" data-name="Rectangle 118" width="1.699" height="2.163" transform="translate(61.714 5.246)" fill="none" stroke="#070202" stroke-linecap="round" stroke-linejoin="round" stroke-width="0.5"/>
      <path id="Path_402" data-name="Path 402" d="M264.121,818.649a.469.469,0,0,1-.433.462" transform="translate(-241.058 -789.537)" fill="none" stroke="#070202" stroke-linecap="round" stroke-linejoin="round" stroke-width="0.5"/>
      <path id="Path_403" data-name="Path 403" d="M265.185,818.86h-2.747v1.358" transform="translate(-242.555 -789.285)" fill="none" stroke="#070202" stroke-linecap="round" stroke-linejoin="round" stroke-width="0.5"/>
      <path id="Path_404" data-name="Path 404" d="M263.111,819.478a1.264,1.264,0,0,1-1.235,1.266" transform="translate(-243.228 -788.544)" fill="none" stroke="#070202" stroke-linecap="round" stroke-linejoin="round" stroke-width="0.5"/>
      <path id="Path_405" data-name="Path 405" d="M278.987,807a.654.654,0,0,1-.646.651.637.637,0,0,1-.62-.5" transform="translate(-224.249 -803.485)" fill="none" stroke="#070202" stroke-linecap="round" stroke-linejoin="round" stroke-width="0.5"/>
      <path id="Path_406" data-name="Path 406" d="M278.78,807.074h-1.048l-.894.958h5.277v-.646l1.207.831-1.207.8v-.651H278.29l.921.958h1.053v-.4h1.171v1.141h-1.171v-.4h-1.141" transform="translate(-225.308 -803.402)" fill="none" stroke="#070202" stroke-linecap="round" stroke-linejoin="round" stroke-width="0.5"/>
      <path id="Path_407" data-name="Path 407" d="M277.945,808.289a.248.248,0,0,1-.125-.062" transform="translate(-224.13 -802.021)" fill="none" stroke="#070202" stroke-linecap="round" stroke-linejoin="round" stroke-width="0.5"/>
      <path id="Path_408" data-name="Path 408" d="M279.789,808.9l-1.143-1.237h-2.47" transform="translate(-226.1 -802.695)" fill="none" stroke="#070202" stroke-linecap="round" stroke-linejoin="round" stroke-width="0.5"/>
      <path id="Path_409" data-name="Path 409" d="M257.521,820.744a1.264,1.264,0,0,1-1.235-1.266" transform="translate(-249.924 -788.544)" fill="none" stroke="#070202" stroke-linecap="round" stroke-linejoin="round" stroke-width="0.5"/>
      <path id="Path_410" data-name="Path 410" d="M258.945,819.6v-.218h-4.879" transform="translate(-252.583 -788.663)" fill="none" stroke="#070202" stroke-linecap="round" stroke-linejoin="round" stroke-width="0.5"/>
      <path id="Path_411" data-name="Path 411" d="M254.235,819.547a.309.309,0,0,1-.31-.308" transform="translate(-252.752 -788.83)" fill="none" stroke="#070202" stroke-linecap="round" stroke-linejoin="round" stroke-width="0.5"/>
      <line id="Line_159" data-name="Line 159" y1="4.971" transform="translate(1.174 25.438)" fill="none" stroke="#070202" stroke-linecap="round" stroke-linejoin="round" stroke-width="0.5"/>
      <path id="Path_412" data-name="Path 412" d="M253.925,817.145a.331.331,0,0,1,.31-.308" transform="translate(-252.752 -791.708)" fill="none" stroke="#070202" stroke-linecap="round" stroke-linejoin="round" stroke-width="0.5"/>
      <path id="Path_413" data-name="Path 413" d="M254.066,816.938h4.879v-.185" transform="translate(-252.583 -791.807)" fill="none" stroke="#070202" stroke-linecap="round" stroke-linejoin="round" stroke-width="0.5"/>
      <path id="Path_414" data-name="Path 414" d="M277.219,808.27a.935.935,0,0,1-.956.8.957.957,0,1,1,0-1.914.938.938,0,0,1,.956.774" transform="translate(-227.143 -803.301)" fill="none" stroke="#070202" stroke-linecap="round" stroke-linejoin="round" stroke-width="0.5"/>
      <path id="Path_415" data-name="Path 415" d="M256.286,817.443a1.266,1.266,0,0,1,1.235-1.266" transform="translate(-249.924 -792.498)" fill="none" stroke="#070202" stroke-linecap="round" stroke-linejoin="round" stroke-width="0.5"/>
      <path id="Path_416" data-name="Path 416" d="M276.176,808.167h.989l1.171-1.2" transform="translate(-226.1 -803.536)" fill="none" stroke="#070202" stroke-linecap="round" stroke-linejoin="round" stroke-width="0.5"/>
      <path id="Path_417" data-name="Path 417" d="M277.159,807a.161.161,0,0,1,.121-.064" transform="translate(-224.922 -803.571)" fill="none" stroke="#070202" stroke-linecap="round" stroke-linejoin="round" stroke-width="0.5"/>
      <line id="Line_160" data-name="Line 160" x2="1.114" transform="translate(52.358 3.363)" fill="none" stroke="#070202" stroke-linecap="round" stroke-linejoin="round" stroke-width="0.5"/>
      <path id="Path_418" data-name="Path 418" d="M277.721,807.2a.631.631,0,0,1,.62-.49.672.672,0,0,1,.646.644" transform="translate(-224.249 -803.838)" fill="none" stroke="#070202" stroke-linecap="round" stroke-linejoin="round" stroke-width="0.5"/>
      <line id="Line_161" data-name="Line 161" x2="11.051" transform="translate(7.598 23.679)" fill="none" stroke="#070202" stroke-linecap="round" stroke-linejoin="round" stroke-width="0.5"/>
      <path id="Path_419" data-name="Path 419" d="M261.876,816.177a1.266,1.266,0,0,1,1.235,1.266" transform="translate(-243.228 -792.498)" fill="none" stroke="#070202" stroke-linecap="round" stroke-linejoin="round" stroke-width="0.5"/>
      <path id="Path_420" data-name="Path 420" d="M262.438,816.753v1.356h2.747" transform="translate(-242.555 -791.808)" fill="none" stroke="#070202" stroke-linecap="round" stroke-linejoin="round" stroke-width="0.5"/>
      <path id="Path_421" data-name="Path 421" d="M263.688,817.371a.47.47,0,0,1,.433.464" transform="translate(-241.058 -791.068)" fill="none" stroke="#070202" stroke-linecap="round" stroke-linejoin="round" stroke-width="0.5"/>
      <line id="Line_162" data-name="Line 162" y2="0.123" transform="translate(23.063 26.766)" fill="none" stroke="#070202" stroke-linecap="round" stroke-linejoin="round" stroke-width="0.5"/>
      <line id="Line_163" data-name="Line 163" x2="36.462" transform="translate(23.063 28.373)" fill="none" stroke="#070202" stroke-linecap="round" stroke-linejoin="round" stroke-width="0.5"/>
    </g>
    <text id="USB_CABLE" data-name="USB CABLE" transform="translate(8 55.968)" fill="#1a1818" font-size="9" font-family="Poppins-Bold, Poppins" font-weight="700"><tspan x="0" y="0" letter-spacing="0.025em">USB </tspan><tspan y="0" letter-spacing="0.024em">C</tspan><tspan y="0" letter-spacing="0.025em">A</tspan><tspan y="0" letter-spacing="0.024em">B</tspan><tspan y="0" letter-spacing="0.025em">L</tspan><tspan y="0">E</tspan></text>
  </g>
</svg>
