<svg xmlns="http://www.w3.org/2000/svg" width="83.056" height="96.285" viewBox="0 0 83.056 96.285">
  <g id="Group_137" data-name="Group 137" transform="translate(0.251 0.271)">
    <line id="Line_52" data-name="Line 52" x2="6.444" y2="8.918" transform="translate(30.838 72.637)" fill="#e50019" stroke="#707070" stroke-width="0.5"/>
    <line id="Line_53" data-name="Line 53" x2="6.444" y2="8.918" transform="translate(30.838 72.637)" fill="none" stroke="#1a1818" stroke-width="0.5"/>
    <path id="Path_290" data-name="Path 290" d="M322.7,838.046l-.161-.222-.317-.437-.026-.037a4.111,4.111,0,0,0-.944,1.219c-.329-1.468-.656-2.928-.985-4.392,1.286.772,2.566,1.54,3.86,2.314a4.141,4.141,0,0,0-1.451.512l.5.7-.48.347" transform="translate(-291.417 -764.288)" fill="#1a1818" fill-rule="evenodd"/>
    <text id="CHARGING_PORT" data-name="CHARGING PORT" transform="translate(4.805 93.014)" fill="#1a1818" font-size="9" font-family="Poppins-Bold, Poppins" font-weight="700"><tspan x="0" y="0" letter-spacing="0.024em">C</tspan><tspan y="0" letter-spacing="0.025em">H</tspan><tspan y="0" letter-spacing="0.024em">A</tspan><tspan y="0" letter-spacing="0.025em">R</tspan><tspan y="0" letter-spacing="0.024em">GI</tspan><tspan y="0" letter-spacing="0.025em">N</tspan><tspan y="0" letter-spacing="0.024em">G</tspan><tspan y="0" xml:space="preserve" letter-spacing="0.025em"> PO</tspan><tspan y="0" letter-spacing="0.024em">R</tspan><tspan y="0">T</tspan></text>
    <path id="Path_291" data-name="Path 291" d="M341.823,855.078,320.9,796.356s-1.7-4.785-1.867-5.15-1.073-1.6-3.569-2.19a15.007,15.007,0,0,0-7.1-.2,10.4,10.4,0,0,0-2.96,1.338.26.26,0,0,0,0,.235l4.217,11.889a4.982,4.982,0,0,1-.381,3.453c-.887,2.121-1.7,3.06-2.54,3,0,0-.609-.031-1.115-1.631-.688-1.936-4.156-11.71-4.156-11.71" transform="translate(-301.383 -788.473)" fill="none" stroke="#1a1818" stroke-linejoin="bevel" stroke-width="0.5"/>
    <path id="Path_292" data-name="Path 292" d="M305.382,789.663a9.551,9.551,0,0,0-2.474,2.251,6.43,6.43,0,0,0-1.5,3.184,7.391,7.391,0,0,0,.665,2.268l22.208,62.273" transform="translate(-301.4 -787.843)" fill="none" stroke="#1a1818" stroke-linejoin="bevel" stroke-width="0.5"/>
    <path id="Path_293" data-name="Path 293" d="M317.314,839.263s-1.482-.575-.81-2.838,4.294-5.395,6.65-5.759,3.779-.8,7.057.121,4.256,2.26,3.974,4.055-2.668,4.419-7.867,5.191S318.017,839.905,317.314,839.263Z" transform="translate(-293.501 -766.372)" fill="none" stroke="#1a1818" stroke-linejoin="bevel" stroke-width="0.5"/>
    <path id="Path_294" data-name="Path 294" d="M317.674,839.066a2.366,2.366,0,0,1-.528-3.407c1.379-2.148,3.65-4.055,5.273-4.5a12.293,12.293,0,0,1,6.812-.243c2.921.771,5.2,1.916,4.178,4.5,0,0-.606,2.271-5.435,3.893C327.974,839.309,321.72,840.918,317.674,839.066Z" transform="translate(-293.333 -766.215)" fill="none" stroke="#1a1818" stroke-linejoin="bevel" stroke-width="0.5"/>
    <path id="Path_295" data-name="Path 295" d="M317.839,838.156s-1.136-.546-.243-2.474a9.13,9.13,0,0,1,4.259-4.1,11.307,11.307,0,0,1,6.042-.405c2.814.546,4.665,1.723,4.542,3.162s-1.84,3.947-7.192,4.664C325.246,839.008,320.654,839.8,317.839,838.156Z" transform="translate(-293.011 -765.995)" fill="none" stroke="#1a1818" stroke-linejoin="bevel" stroke-width="0.5"/>
    <path id="Path_296" data-name="Path 296" d="M318.958,835.753l2.474-3.245a1.538,1.538,0,0,1,1.254-.688,4.418,4.418,0,0,1,.936.162s.443.086-.148.852l-2.569,3.324a1.456,1.456,0,0,1-1.095.486C319.161,836.6,318.34,836.562,318.958,835.753Z" transform="translate(-292.225 -765.538)" fill="none" stroke="#1a1818" stroke-linejoin="bevel" stroke-width="0.5"/>
    <path id="Path_297" data-name="Path 297" d="M318.834,835.88l.846.02s.5.09,1.095-.693,2.473-3.323,2.473-3.323" transform="translate(-292.175 -765.501)" fill="none" stroke="#1a1818" stroke-linejoin="bevel" stroke-width="0.5"/>
    <line id="Line_54" data-name="Line 54" x1="0.508" y1="1.312" transform="translate(27.888 68.673)" fill="none" stroke="#1a1818" stroke-linejoin="bevel" stroke-width="0.5"/>
    <line id="Line_55" data-name="Line 55" x1="0.203" y1="0.425" transform="translate(27.057 69.911)" fill="none" stroke="#1a1818" stroke-linejoin="bevel" stroke-width="0.5"/>
    <path id="Path_298" data-name="Path 298" d="M303.978,789.751l4.133,11.646a5.845,5.845,0,0,1,.084,2.393,8.557,8.557,0,0,1-1.947,3.812c-.7.8-1.454.419-2.067-1.356" transform="translate(-300.036 -787.796)" fill="none" stroke="#1a1818" stroke-linejoin="bevel" stroke-width="0.5"/>
    <path id="Path_299" data-name="Path 299" d="M303.235,794.537s.081-.284.324-.122S305.1,795.5,305.1,795.5s.153.052.324.476l.081.223s.041.1-.1.274-1.561,2.038-1.561,2.038l-.243-.081a1.369,1.369,0,0,1-.122-.223,2.1,2.1,0,0,1-.162-.71C303.316,797.254,303.235,794.537,303.235,794.537Z" transform="translate(-300.429 -785.355)" fill="none" stroke="#1a1818" stroke-linejoin="bevel" stroke-width="0.5"/>
    <path id="Path_300" data-name="Path 300" d="M303.235,794.477l1.723,1.115s.344.454.263.791c-.162.245-1.5,1.988-1.5,1.988" transform="translate(-300.429 -785.295)" fill="none" stroke="#1a1818" stroke-linejoin="bevel" stroke-width="0.5"/>
    <path id="Path_301" data-name="Path 301" d="M303.607,798.22s.622-.948.81-1.194.852-.956.852-.956.275-.041.324.081l.142.356a.443.443,0,0,1-.06.355c-.118.213-1.5,1.947-1.5,1.947a.1.1,0,0,1-.136.06.6.6,0,0,0-.188-.04.248.248,0,0,1-.1-.162C303.712,798.54,303.607,798.22,303.607,798.22Z" transform="translate(-300.232 -784.456)" fill="none" stroke="#1a1818" stroke-linejoin="bevel" stroke-width="0.5"/>
    <path id="Path_302" data-name="Path 302" d="M303.7,798.5s.792-1.055.954-1.3.593-.916,1.058-.81" transform="translate(-300.184 -784.289)" fill="none" stroke="#1a1818" stroke-linejoin="bevel" stroke-width="0.5"/>
    <path id="Path_303" data-name="Path 303" d="M303.937,798.98s.622-.948.81-1.194.852-.956.852-.956.275-.041.324.081.142.356.142.356a.443.443,0,0,1-.06.355c-.118.213-1.5,1.947-1.5,1.947a.1.1,0,0,1-.136.06.6.6,0,0,0-.188-.04.248.248,0,0,1-.1-.162C304.042,799.3,303.937,798.98,303.937,798.98Z" transform="translate(-300.058 -784.054)" fill="none" stroke="#1a1818" stroke-linejoin="bevel" stroke-width="0.5"/>
    <path id="Path_304" data-name="Path 304" d="M304.029,799.259s.792-1.055.954-1.3.593-.916,1.058-.811" transform="translate(-300.009 -783.887)" fill="none" stroke="#1a1818" stroke-linejoin="bevel" stroke-width="0.5"/>
    <path id="Path_305" data-name="Path 305" d="M307.88,807.475a.252.252,0,0,1,.122-.263c.158-.093.179.28.121.405S307.811,807.7,307.88,807.475Z" transform="translate(-297.977 -778.564)" fill="none" stroke="#1a1818" stroke-linejoin="bevel" stroke-width="0.5"/>
    <path id="Path_306" data-name="Path 306" d="M307.615,810.545a6.774,6.774,0,0,1-.269-1.78,3.035,3.035,0,0,1,.933-2.148,1.322,1.322,0,0,1,1.379-.164c.437.185.836,1.39.836,1.39l.786,2.26a4,4,0,0,1,.06,1.885c-.231.922-.881,2.233-1.6,2.454a.929.929,0,0,1-.852-.528C308.554,813.335,307.615,810.545,307.615,810.545Z" transform="translate(-298.254 -779.023)" fill="none" stroke="#1a1818" stroke-linejoin="bevel" stroke-width="0.5"/>
    <path id="Path_307" data-name="Path 307" d="M308.621,814.2a.8.8,0,0,0,.917-.131,4.69,4.69,0,0,0,1.156-2.494,2.227,2.227,0,0,0-.183-1.668c-.133-.367-.892-2.61-.892-2.61a1.337,1.337,0,0,0-1.281-.954" transform="translate(-297.729 -779.016)" fill="none" stroke="#1a1818" stroke-linejoin="bevel" stroke-width="0.5"/>
    <path id="Path_308" data-name="Path 308" d="M313.037,820.682c0,.173-.084.315-.19.315s-.19-.142-.19-.315.086-.315.19-.315S313.037,820.508,313.037,820.682Z" transform="translate(-295.443 -771.596)" fill="none" stroke="#1a1818" stroke-linejoin="bevel" stroke-width="0.5"/>
    <path id="Path_309" data-name="Path 309" d="M313.462,822.061c0,.173-.084.315-.19.315s-.19-.142-.19-.315.086-.315.19-.315S313.462,821.887,313.462,822.061Z" transform="translate(-295.218 -770.866)" fill="none" stroke="#1a1818" stroke-linejoin="bevel" stroke-width="0.5"/>
    <path id="Path_310" data-name="Path 310" d="M313.939,823.427c0,.174-.084.315-.19.315s-.19-.141-.19-.315.086-.315.19-.315S313.939,823.254,313.939,823.427Z" transform="translate(-294.966 -770.143)" fill="none" stroke="#1a1818" stroke-linejoin="bevel" stroke-width="0.5"/>
    <path id="Path_311" data-name="Path 311" d="M309.854,788.507l-2.668.459a2.064,2.064,0,0,0-1.595,2.724l8.944,25.223a8.793,8.793,0,0,1-2.288,9.369,1.506,1.506,0,0,1-2.445-.595l-.9-2.526" transform="translate(-299.246 -788.454)" fill="none" stroke="#1a1818" stroke-linejoin="bevel" stroke-width="0.5"/>
    <path id="Path_312" data-name="Path 312" d="M315.783,827.887l-.05.052c-.888.9-1.918.759-2.3-.309l-1.668-4.672a3.776,3.776,0,0,1,.917-3.558l.05-.052c.888-.9,1.918-.76,2.3.309l1.668,4.67A3.778,3.778,0,0,1,315.783,827.887Z" transform="translate(-295.99 -772.448)" fill="none" stroke="#1a1818" stroke-linejoin="bevel" stroke-width="0.5"/>
  </g>
</svg>
