<svg xmlns="http://www.w3.org/2000/svg" width="82.215" height="58.387" viewBox="0 0 82.215 58.387">
  <g id="Group_138" data-name="Group 138" transform="translate(0.03 0.25)">
    <text id="CLEANING_BRUSH" data-name="CLEANING
BRUSH" transform="translate(41 45.137)" fill="#1a1818" font-size="9" font-family="Poppins-Bold, Poppins" font-weight="700"><tspan x="-23" y="0" letter-spacing="0.024em">C</tspan><tspan y="0" letter-spacing="0.025em">LE</tspan><tspan y="0" letter-spacing="0.024em">A</tspan><tspan y="0" letter-spacing="0.025em">N</tspan><tspan y="0" letter-spacing="0.024em">I</tspan><tspan y="0" letter-spacing="0.025em">N</tspan><tspan y="0">G</tspan><tspan x="-15" y="10">BRUSH</tspan></text>
    <g id="Group_359" data-name="Group 359">
      <circle id="Ellipse_23" data-name="Ellipse 23" cx="14.31" cy="14.31" r="14.31" transform="translate(53.315)" fill="none" stroke="#1a1818" stroke-linejoin="bevel" stroke-width="0.5"/>
      <path id="Path_313" data-name="Path 313" d="M205.829,810.395l-46.455-1.638a2.125,2.125,0,0,0-2.2,2.125v6.2a2.125,2.125,0,0,0,2.2,2.123l46.455-1.638" transform="translate(-151.966 -799.673)" fill="none" stroke="#1a1818" stroke-linejoin="bevel" stroke-width="0.5"/>
      <path id="Path_314" data-name="Path 314" d="M207.062,819.729l-46.832,1.65a3.492,3.492,0,0,1-3.614-3.489v-6.2a3.493,3.493,0,0,1,3.614-3.489l46.823,1.651" transform="translate(-152.772 -800.479)" fill="none" stroke="#1a1818" stroke-linejoin="bevel" stroke-width="0.5"/>
      <line id="Line_56" data-name="Line 56" x1="0.808" y1="9.87" transform="translate(45.098 12.78)" fill="none" stroke="#1a1818" stroke-linejoin="bevel" stroke-width="0.5"/>
      <line id="Line_57" data-name="Line 57" x1="0.615" y1="9.856" transform="translate(43.058 12.929)" fill="none" stroke="#1a1818" stroke-linejoin="bevel" stroke-width="0.5"/>
      <line id="Line_58" data-name="Line 58" x1="0.421" y1="9.839" transform="translate(41.017 13.081)" fill="none" stroke="#1a1818" stroke-linejoin="bevel" stroke-width="0.5"/>
      <line id="Line_59" data-name="Line 59" x1="0.228" y1="9.821" transform="translate(38.977 13.232)" fill="none" stroke="#1a1818" stroke-linejoin="bevel" stroke-width="0.5"/>
      <line id="Line_60" data-name="Line 60" x1="0.037" y1="9.807" transform="translate(36.933 13.381)" fill="none" stroke="#1a1818" stroke-linejoin="bevel" stroke-width="0.5"/>
      <line id="Line_61" data-name="Line 61" y1="9.79" x2="0.157" transform="translate(34.735 13.533)" fill="none" stroke="#1a1818" stroke-linejoin="bevel" stroke-width="0.5"/>
      <line id="Line_62" data-name="Line 62" y1="9.772" x2="0.35" transform="translate(32.501 13.684)" fill="none" stroke="#1a1818" stroke-linejoin="bevel" stroke-width="0.5"/>
      <line id="Line_63" data-name="Line 63" y1="9.755" x2="0.544" transform="translate(30.268 13.836)" fill="none" stroke="#1a1818" stroke-linejoin="bevel" stroke-width="0.5"/>
      <line id="Line_64" data-name="Line 64" y1="9.741" x2="0.735" transform="translate(28.033 13.985)" fill="none" stroke="#1a1818" stroke-linejoin="bevel" stroke-width="0.5"/>
      <line id="Line_65" data-name="Line 65" y1="9.723" x2="0.928" transform="translate(25.799 14.136)" fill="none" stroke="#1a1818" stroke-linejoin="bevel" stroke-width="0.5"/>
      <line id="Line_66" data-name="Line 66" y1="9.706" x2="1.121" transform="translate(23.565 14.288)" fill="none" stroke="#1a1818" stroke-linejoin="bevel" stroke-width="0.5"/>
      <line id="Line_67" data-name="Line 67" y1="9.689" x2="1.315" transform="translate(21.331 14.439)" fill="none" stroke="#1a1818" stroke-linejoin="bevel" stroke-width="0.5"/>
      <line id="Line_68" data-name="Line 68" y1="9.675" x2="1.506" transform="translate(19.097 14.588)" fill="none" stroke="#1a1818" stroke-linejoin="bevel" stroke-width="0.5"/>
      <line id="Line_69" data-name="Line 69" y1="9.657" x2="1.699" transform="translate(16.862 14.74)" fill="none" stroke="#1a1818" stroke-linejoin="bevel" stroke-width="0.5"/>
      <line id="Line_70" data-name="Line 70" y1="9.64" x2="1.893" transform="translate(14.629 14.892)" fill="none" stroke="#1a1818" stroke-linejoin="bevel" stroke-width="0.5"/>
      <line id="Line_71" data-name="Line 71" y1="9.623" x2="2.086" transform="translate(12.395 15.043)" fill="none" stroke="#1a1818" stroke-linejoin="bevel" stroke-width="0.5"/>
      <line id="Line_72" data-name="Line 72" y1="9.608" x2="2.277" transform="translate(10.16 15.192)" fill="none" stroke="#1a1818" stroke-linejoin="bevel" stroke-width="0.5"/>
      <line id="Line_73" data-name="Line 73" y1="9.591" x2="2.471" transform="translate(7.927 15.344)" fill="none" stroke="#1a1818" stroke-linejoin="bevel" stroke-width="0.5"/>
      <line id="Line_74" data-name="Line 74" x1="0.808" y2="9.87" transform="translate(45.098 5.97)" fill="none" stroke="#1a1818" stroke-linejoin="bevel" stroke-width="0.5"/>
      <line id="Line_75" data-name="Line 75" x1="0.615" y2="9.856" transform="translate(43.058 5.835)" fill="none" stroke="#1a1818" stroke-linejoin="bevel" stroke-width="0.5"/>
      <line id="Line_76" data-name="Line 76" x1="0.421" y2="9.839" transform="translate(41.017 5.701)" fill="none" stroke="#1a1818" stroke-linejoin="bevel" stroke-width="0.5"/>
      <line id="Line_77" data-name="Line 77" x1="0.228" y2="9.821" transform="translate(38.977 5.566)" fill="none" stroke="#1a1818" stroke-linejoin="bevel" stroke-width="0.5"/>
      <line id="Line_78" data-name="Line 78" x1="0.037" y2="9.807" transform="translate(36.933 5.432)" fill="none" stroke="#1a1818" stroke-linejoin="bevel" stroke-width="0.5"/>
      <line id="Line_79" data-name="Line 79" x2="0.157" y2="9.79" transform="translate(34.735 5.298)" fill="none" stroke="#1a1818" stroke-linejoin="bevel" stroke-width="0.5"/>
      <line id="Line_80" data-name="Line 80" x2="0.35" y2="9.773" transform="translate(32.501 5.164)" fill="none" stroke="#1a1818" stroke-linejoin="bevel" stroke-width="0.5"/>
      <line id="Line_81" data-name="Line 81" x2="0.544" y2="9.755" transform="translate(30.268 5.029)" fill="none" stroke="#1a1818" stroke-linejoin="bevel" stroke-width="0.5"/>
      <line id="Line_82" data-name="Line 82" x2="0.735" y2="9.741" transform="translate(28.033 4.895)" fill="none" stroke="#1a1818" stroke-linejoin="bevel" stroke-width="0.5"/>
      <line id="Line_83" data-name="Line 83" x2="0.928" y2="9.724" transform="translate(25.799 4.76)" fill="none" stroke="#1a1818" stroke-linejoin="bevel" stroke-width="0.5"/>
      <line id="Line_84" data-name="Line 84" x2="1.121" y2="9.706" transform="translate(23.565 4.626)" fill="none" stroke="#1a1818" stroke-linejoin="bevel" stroke-width="0.5"/>
      <line id="Line_85" data-name="Line 85" x2="1.315" y2="9.689" transform="translate(21.331 4.492)" fill="none" stroke="#1a1818" stroke-linejoin="bevel" stroke-width="0.5"/>
      <line id="Line_86" data-name="Line 86" x2="1.506" y2="9.675" transform="translate(19.097 4.357)" fill="none" stroke="#1a1818" stroke-linejoin="bevel" stroke-width="0.5"/>
      <line id="Line_87" data-name="Line 87" x2="1.699" y2="9.657" transform="translate(16.862 4.223)" fill="none" stroke="#1a1818" stroke-linejoin="bevel" stroke-width="0.5"/>
      <line id="Line_88" data-name="Line 88" x2="1.893" y2="9.64" transform="translate(14.629 4.088)" fill="none" stroke="#1a1818" stroke-linejoin="bevel" stroke-width="0.5"/>
      <line id="Line_89" data-name="Line 89" x2="2.086" y2="9.623" transform="translate(12.395 3.954)" fill="none" stroke="#1a1818" stroke-linejoin="bevel" stroke-width="0.5"/>
      <line id="Line_90" data-name="Line 90" x2="2.277" y2="9.608" transform="translate(10.16 3.819)" fill="none" stroke="#1a1818" stroke-linejoin="bevel" stroke-width="0.5"/>
      <line id="Line_91" data-name="Line 91" x2="2.471" y2="9.591" transform="translate(7.927 3.685)" fill="none" stroke="#1a1818" stroke-linejoin="bevel" stroke-width="0.5"/>
      <line id="Line_92" data-name="Line 92" x2="3.134" y2="8.972" transform="translate(5.748 4.518)" fill="none" stroke="#1a1818" stroke-linejoin="bevel" stroke-width="0.5"/>
      <line id="Line_93" data-name="Line 93" x2="5.225" y2="8.046" transform="translate(3.474 5.616)" fill="none" stroke="#1a1818" stroke-linejoin="bevel" stroke-width="0.5"/>
      <line id="Line_94" data-name="Line 94" x2="7.023" y2="5.918" transform="translate(1.491 7.919)" fill="none" stroke="#1a1818" stroke-linejoin="bevel" stroke-width="0.5"/>
      <line id="Line_95" data-name="Line 95" x2="7.97" y2="3.284" transform="translate(0.358 10.727)" fill="none" stroke="#1a1818" stroke-linejoin="bevel" stroke-width="0.5"/>
      <line id="Line_96" data-name="Line 96" x2="8.147" y2="0.972" transform="translate(0 13.212)" fill="none" stroke="#1a1818" stroke-linejoin="bevel" stroke-width="0.5"/>
      <line id="Line_97" data-name="Line 97" y1="8.972" x2="3.134" transform="translate(5.748 15.005)" fill="none" stroke="#1a1818" stroke-linejoin="bevel" stroke-width="0.5"/>
      <line id="Line_98" data-name="Line 98" y1="8.046" x2="5.225" transform="translate(3.474 14.833)" fill="none" stroke="#1a1818" stroke-linejoin="bevel" stroke-width="0.5"/>
      <line id="Line_99" data-name="Line 99" y1="5.918" x2="7.023" transform="translate(1.491 14.657)" fill="none" stroke="#1a1818" stroke-linejoin="bevel" stroke-width="0.5"/>
      <line id="Line_100" data-name="Line 100" y1="3.284" x2="7.97" transform="translate(0.358 14.484)" fill="none" stroke="#1a1818" stroke-linejoin="bevel" stroke-width="0.5"/>
      <line id="Line_101" data-name="Line 101" y1="0.972" x2="8.147" transform="translate(0 14.311)" fill="none" stroke="#1a1818" stroke-linejoin="bevel" stroke-width="0.5"/>
    </g>
  </g>
</svg>
