<svg xmlns="http://www.w3.org/2000/svg" width="88.314" height="96.584" viewBox="0 0 88.314 96.584">
  <g id="Group_144" data-name="Group 144" transform="translate(0.25 0.25)">
    <line id="Line_166" data-name="Line 166" x2="13.389" transform="translate(19.147 69.953)" fill="#e50019" stroke="#707070" stroke-width="0.5"/>
    <line id="Line_167" data-name="Line 167" x2="13.389" transform="translate(19.147 69.953)" fill="none" stroke="#1a1818" stroke-width="0.5"/>
    <path id="Path_423" data-name="Path 423" d="M450.93,840.315h-1.122a4.592,4.592,0,0,0,.561,1.751l-5.386-2.1c1.8-.695,3.58-1.391,5.386-2.093a4.567,4.567,0,0,0-.561,1.744h1.122Z" transform="translate(-430.255 -770.012)" fill="#1a1818" fill-rule="evenodd"/>
    <path id="Path_425" data-name="Path 425" d="M436.949,800.361h18.127l.047.094v95.778l-.214.212H437.043l-.2-.2V800.455Z" transform="translate(-436.842 -800.361)" fill="none" stroke="#1a1818" stroke-linejoin="bevel" stroke-width="0.5"/>
    <line id="Line_170" data-name="Line 170" x2="4.354" transform="translate(0 0.118)" fill="none" stroke="#1a1818" stroke-linejoin="bevel" stroke-width="0.5"/>
    <path id="Path_426" data-name="Path 426" d="M439.256,800.361v17.5a5,5,0,0,0,.472,2.518,4.675,4.675,0,0,0,4.295,2.739,4.388,4.388,0,0,0,4.273-2.478,5.939,5.939,0,0,0,.543-2.753v-17.5" transform="translate(-434.902 -800.361)" fill="none" stroke="#1a1818" stroke-linejoin="bevel" stroke-width="0.5"/>
    <line id="Line_171" data-name="Line 171" x1="4.344" transform="translate(13.937 0.095)" fill="none" stroke="#1a1818" stroke-linejoin="bevel" stroke-width="0.5"/>
    <path id="Path_427" data-name="Path 427" d="M439.329,800.385v17.854a5.2,5.2,0,0,0,.188,1.382,4.63,4.63,0,0,0,2.786,3.068,4.706,4.706,0,0,0,4.532-.613,5.021,5.021,0,0,0,1.816-3.4c.119-.9,0-18.315,0-18.315" transform="translate(-434.831 -800.361)" fill="none" stroke="#1a1818" stroke-linejoin="bevel" stroke-width="0.5"/>
    <line id="Line_172" data-name="Line 172" x2="9.346" transform="translate(4.497 0.189)" fill="none" stroke="#1a1818" stroke-linejoin="bevel" stroke-width="0.5"/>
    <path id="Path_428" data-name="Path 428" d="M444.917,808.822s-.007.141-.188.141h-3.777a.174.174,0,0,1-.188-.188v-.707a.234.234,0,0,0,0-.237l1.983-3.4h.188l1.936,3.352s-.051.074.047.141Z" transform="translate(-433.67 -797.068)" fill="none" stroke="#1a1818" stroke-linejoin="bevel" stroke-width="0.5"/>
    <path id="Path_429" data-name="Path 429" d="M440.935,808.812c-.094,0-.094-.118-.094-.118v-.756a.311.311,0,0,0,.094-.188l1.795-3.162,1.887,3.162s-.049.076.047.188v.85" transform="translate(-433.607 -796.941)" fill="none" stroke="#1a1818" stroke-linejoin="bevel" stroke-width="0.5"/>
    <rect id="Rectangle_119" data-name="Rectangle 119" width="4.203" height="1.123" rx="0.269" transform="translate(7.045 12.722)" fill="none" stroke="#1a1818" stroke-linejoin="bevel" stroke-width="0.5"/>
    <rect id="Rectangle_120" data-name="Rectangle 120" width="4.203" height="1.123" rx="0.269" transform="translate(7.045 14.567)" fill="none" stroke="#1a1818" stroke-linejoin="bevel" stroke-width="0.5"/>
    <path id="Path_430" data-name="Path 430" d="M443.326,830.4h0a3.161,3.161,0,0,1-3.151-3.151v-4.107a3.151,3.151,0,0,1,6.3,0v4.107A3.161,3.161,0,0,1,443.326,830.4Z" transform="translate(-434.145 -784.475)" fill="none" stroke="#1a1818" stroke-linejoin="bevel" stroke-width="0.5"/>
    <path id="Path_431" data-name="Path 431" d="M443.171,847.649h0a2.812,2.812,0,0,1-2.8-2.8v-6.019a2.8,2.8,0,0,1,5.608,0v6.019A2.812,2.812,0,0,1,443.171,847.649Z" transform="translate(-433.99 -771.507)" fill="none" stroke="#1a1818" stroke-linejoin="bevel" stroke-width="0.5"/>
    <path id="Path_432" data-name="Path 432" d="M442.362,821.018a.33.33,0,1,1-.331-.331A.331.331,0,0,1,442.362,821.018Z" transform="translate(-432.91 -783.916)" fill="none" stroke="#1a1818" stroke-linejoin="bevel" stroke-width="0.5"/>
    <line id="Line_173" data-name="Line 173" x2="18.279" transform="translate(0 95.884)" fill="none" stroke="#1a1818" stroke-linejoin="bevel" stroke-width="0.5"/>
    <path id="Path_433" data-name="Path 433" d="M442.526,837.733a.425.425,0,1,1-.425-.425A.425.425,0,0,1,442.526,837.733Z" transform="translate(-432.931 -770.468)" fill="none" stroke="#1a1818" stroke-linejoin="bevel" stroke-width="0.5"/>
    <path id="Path_434" data-name="Path 434" d="M442.526,839.456a.425.425,0,1,1-.425-.425A.425.425,0,0,1,442.526,839.456Z" transform="translate(-432.931 -769.074)" fill="none" stroke="#1a1818" stroke-linejoin="bevel" stroke-width="0.5"/>
    <path id="Path_435" data-name="Path 435" d="M442.526,841.178a.425.425,0,1,1-.425-.425A.425.425,0,0,1,442.526,841.178Z" transform="translate(-432.931 -767.68)" fill="none" stroke="#1a1818" stroke-linejoin="bevel" stroke-width="0.5"/>
    <path id="Path_436" data-name="Path 436" d="M445.011,850.194h0a6.966,6.966,0,0,1-6.965-6.965V800.361h13.93v42.868A6.966,6.966,0,0,1,445.011,850.194Z" transform="translate(-435.868 -800.361)" fill="none" stroke="#1a1818" stroke-linejoin="bevel" stroke-width="0.5"/>
    <text id="BATTERY_INDICATOR" data-name="BATTERY
INDICATOR" transform="translate(37.064 66.012)" fill="#1a1818" font-size="9" font-family="Poppins-Bold, Poppins" font-weight="700"><tspan x="0" y="0" letter-spacing="0.025em">B</tspan><tspan y="0" letter-spacing="0.024em">A</tspan><tspan y="0" letter-spacing="0.025em">TTER</tspan><tspan y="0">Y</tspan><tspan x="0" y="10">INDICATOR</tspan></text>
  </g>
</svg>
