<svg xmlns="http://www.w3.org/2000/svg" width="62.682" height="97.243" viewBox="0 0 62.682 97.243">
  <g id="Group_136" data-name="Group 136" transform="translate(0.051 0.259)">
    <line id="Line_42" data-name="Line 42" y1="2.123" x2="10.248" transform="translate(0 13.306)" fill="none" stroke="#818386" stroke-linejoin="bevel" stroke-width="0.5" stroke-dasharray="0.3 0.3"/>
    <line id="Line_43" data-name="Line 43" y1="1.084" x2="5.233" transform="translate(2.507 13.826)" fill="none" stroke="#1a1818" stroke-linejoin="bevel" stroke-width="0.5"/>
    <path id="Path_241" data-name="Path 241" d="M283.474,894.257s-.853,1.306,1.313,1.9,4.07-.781,4-2.036-2.026-1.375-2.8-1.243A3.24,3.24,0,0,0,283.474,894.257Z" transform="translate(-283.098 -892.833)" fill="none" stroke="#1a1818" stroke-linejoin="bevel" stroke-width="0.5"/>
    <path id="Path_242" data-name="Path 242" d="M283.369,894.66l4.5,28.186a2,2,0,0,0,1.3,1.471,4.322,4.322,0,0,0,3.866-1s.437-.219.207-1.648-4.488-28.008-4.488-28.008" transform="translate(-283.064 -892.376)" fill="none" stroke="#1a1818" stroke-linejoin="bevel" stroke-width="0.5"/>
    <path id="Path_243" data-name="Path 243" d="M300.2,917.392s-.068-.9-1.381-1.726-5.347-1.427-8.562-.932-5.351,2.209-5.126,3.866,2.158,2.728,4.126,3.279,6.013,1.168,8.009-.345l.345.034.172.138a7.245,7.245,0,0,1-3.417,1.14,14.368,14.368,0,0,1-7.818-1.64,3.413,3.413,0,0,1-1.883-2.451s-.322-1.423,1.864-2.951a9.965,9.965,0,0,1,5.282-1.5,20.322,20.322,0,0,1,6.353.743s2.417.631,2.381,2.52Z" transform="translate(-282.356 -880.961)" fill="none" stroke="#1a1818" stroke-linejoin="bevel" stroke-width="0.5"/>
    <path id="Path_244" data-name="Path 244" d="M295.1,916.882l-.068-.189a2.449,2.449,0,0,0-.6-1.33" transform="translate(-276.945 -880.366)" fill="none" stroke="#1a1818" stroke-linejoin="bevel" stroke-width="0.5"/>
    <path id="Path_245" data-name="Path 245" d="M295.721,916.352s-.087,2.179-2.728,4.073" transform="translate(-277.738 -879.819)" fill="none" stroke="#1a1818" stroke-linejoin="bevel" stroke-width="0.5"/>
    <path id="Path_246" data-name="Path 246" d="M300.416,917.252h-.2s.039-.323-.592-1.174-2.717-1.392-4.213-1.519a16.171,16.171,0,0,0-5.937.155,6.815,6.815,0,0,0-3.728,1.883,2.4,2.4,0,0,0-.76,2.313c.413,1.277,1.709,2.847,6.248,3.521s6.077-.794,6.077-.794l.449.034c2.74-1.937,2.762-4.143,2.762-4.143l8.769,54.339a2.925,2.925,0,0,1-.409,1.889c-.593,1.115-2.122,3.636-6.527,3.877,0,0-2.046.2-5.976-1.208,0,0-2.007-.808-2.555-1.864a3.307,3.307,0,0,1-.39-1.179c-.123-.761-8.736-54.335-8.736-54.335" transform="translate(-282.33 -880.926)" fill="none" stroke="#1a1818" stroke-linejoin="bevel" stroke-width="0.5"/>
    <path id="Path_247" data-name="Path 247" d="M293.1,919.064l1.657,10.22s.208,1.522,1.5,1.277c0,0,.969-.149,1.328-1.726a9.8,9.8,0,0,0-.081-3.591" transform="translate(-277.676 -878.318)" fill="none" stroke="#1a1818" stroke-linejoin="bevel" stroke-width="0.5"/>
    <path id="Path_248" data-name="Path 248" d="M293.039,919.108l1.689,10.322s.255,1.322,1.417,1.243c0,0,.873-.006,1.268-1.174" transform="translate(-277.713 -878.294)" fill="none" stroke="#1a1818" stroke-linejoin="bevel" stroke-width="0.5"/>
    <path id="Path_249" data-name="Path 249" d="M295.938,916.841a6.3,6.3,0,0,1-2.745,4.117" transform="translate(-277.628 -879.548)" fill="none" stroke="#1a1818" stroke-linejoin="bevel" stroke-width="0.5"/>
    <path id="Path_250" data-name="Path 250" d="M295.239,920.609l-.3-.19s-.07.034-.087.207-.312,2.521-.312,2.521a3.728,3.728,0,0,0,0,.413c.017.09.051.276.051.276s.068.068.12.068.141.054.329-.137,1.035-1.623,1.035-1.623l-.068-.553Z" transform="translate(-276.885 -877.568)" fill="none" stroke="#1a1818" stroke-linejoin="bevel" stroke-width="0.5"/>
    <path id="Path_251" data-name="Path 251" d="M295.114,920.542l-.318,2.364a2,2,0,0,0,.017.829" transform="translate(-276.76 -877.5)" fill="none" stroke="#1a1818" stroke-linejoin="bevel" stroke-width="0.5"/>
    <path id="Path_252" data-name="Path 252" d="M294.757,923.5l1.07-1.571a.213.213,0,0,1,.19-.034c.1.034.121.189.121.189l.051.328s-.067.135-.207.379a7.346,7.346,0,0,1-.932,1.347.244.244,0,0,1-.345,0l-.056-.311A.333.333,0,0,1,294.757,923.5Z" transform="translate(-276.826 -876.76)" fill="none" stroke="#1a1818" stroke-linejoin="bevel" stroke-width="0.5"/>
    <path id="Path_253" data-name="Path 253" d="M294.705,922.942s.249.033.294.224a1.145,1.145,0,0,1,.017.381" transform="translate(-276.791 -876.172)" fill="none" stroke="#1a1818" stroke-linejoin="bevel" stroke-width="0.5"/>
    <path id="Path_254" data-name="Path 254" d="M294.763,924.53a.375.375,0,0,1,.1-.345c.155-.155,1.087-1.606,1.087-1.606a.215.215,0,0,1,.241.07.815.815,0,0,1,.1.449,9.092,9.092,0,0,1-.621,1.061,7.01,7.01,0,0,1-.587.733c-.034,0-.244.056-.277-.1S294.763,924.53,294.763,924.53Z" transform="translate(-276.763 -876.38)" fill="none" stroke="#1a1818" stroke-linejoin="bevel" stroke-width="0.5"/>
    <path id="Path_255" data-name="Path 255" d="M294.816,923.643a.253.253,0,0,1,.294.242,1.907,1.907,0,0,0,.034.328" transform="translate(-276.729 -875.785)" fill="none" stroke="#1a1818" stroke-linejoin="bevel" stroke-width="0.5"/>
    <path id="Path_256" data-name="Path 256" d="M297.717,930.924s-.2-.559-.587-.379a3.9,3.9,0,0,0-1.036,1.828,4.8,4.8,0,0,0-.207,1.589c.053.464.415,2.728.415,2.728s.272,1.028,1.139.552c0,0,.878-.477.864-2.454,0,0-.065-.757-.174-1.439S297.717,930.924,297.717,930.924Z" transform="translate(-276.143 -871.985)" fill="none" stroke="#1a1818" stroke-linejoin="bevel" stroke-width="0.5"/>
    <path id="Path_257" data-name="Path 257" d="M297.5,930.592s-.284-.176-.561.205a6.684,6.684,0,0,0-.932,2.417,12.333,12.333,0,0,0,.364,3.1s-.033,1.03.845.988" transform="translate(-276.086 -871.961)" fill="none" stroke="#1a1818" stroke-linejoin="bevel" stroke-width="0.5"/>
    <path id="Path_258" data-name="Path 258" d="M296.551,931.487s.025-.3.138-.241-.034.415-.034.415S296.515,931.738,296.551,931.487Z" transform="translate(-275.772 -871.581)" fill="none" stroke="#1a1818" stroke-linejoin="bevel" stroke-width="0.5"/>
    <path id="Path_259" data-name="Path 259" d="M298.48,942.583c0,.161-.054.294-.121.294s-.121-.132-.121-.294.054-.294.121-.294S298.48,942.421,298.48,942.583Z" transform="translate(-274.836 -865.466)" fill="none" stroke="#1a1818" stroke-linejoin="bevel" stroke-width="0.5"/>
    <path id="Path_260" data-name="Path 260" d="M298.691,943.761c0,.161-.054.293-.121.293s-.121-.132-.121-.293.054-.294.121-.294S298.691,943.6,298.691,943.761Z" transform="translate(-274.719 -864.814)" fill="none" stroke="#1a1818" stroke-linejoin="bevel" stroke-width="0.5"/>
    <path id="Path_261" data-name="Path 261" d="M298.891,944.86c0,.162-.054.294-.121.294s-.121-.132-.121-.294.054-.293.121-.293S298.891,944.7,298.891,944.86Z" transform="translate(-274.608 -864.205)" fill="none" stroke="#1a1818" stroke-linejoin="bevel" stroke-width="0.5"/>
    <path id="Path_262" data-name="Path 262" d="M288.492,919.207s-1.209-.068-1.485-1,.823-1.94,1.864-2.209a3.892,3.892,0,0,1,3.419.449s.96.885-.276,2" transform="translate(-281.074 -880.119)" fill="none" stroke="#1a1818" stroke-linejoin="bevel" stroke-width="0.5"/>
    <path id="Path_263" data-name="Path 263" d="M290.352,919.409a3.888,3.888,0,0,1-3.349-.76s-1.067-1.115.586-2.313a4.678,4.678,0,0,1,4.211-.656,1.563,1.563,0,0,1,1.21,2.037S292.587,918.883,290.352,919.409Z" transform="translate(-281.241 -880.32)" fill="none" stroke="#1a1818" stroke-linejoin="bevel" stroke-width="0.5"/>
    <path id="Path_264" data-name="Path 264" d="M287.037,918.347a1.59,1.59,0,0,1,.57-1.553,4.806,4.806,0,0,1,3.037-.864c.875.011,2.1.666,1.934,1.65" transform="translate(-281.052 -880.053)" fill="none" stroke="#1a1818" stroke-linejoin="bevel" stroke-width="0.5"/>
    <path id="Path_265" data-name="Path 265" d="M287.66,916.419l.034.379.1.174.656-.208.138-.1-.068-.553" transform="translate(-280.69 -879.954)" fill="none" stroke="#1a1818" stroke-linejoin="bevel" stroke-width="0.5"/>
    <path id="Path_266" data-name="Path 266" d="M287.748,916.252l.068.57-.068.068" transform="translate(-280.64 -879.874)" fill="none" stroke="#1a1818" stroke-linejoin="bevel" stroke-width="0.5"/>
    <line id="Line_44" data-name="Line 44" y1="0.242" x2="0.725" transform="translate(7.177 36.706)" fill="none" stroke="#1a1818" stroke-linejoin="bevel" stroke-width="0.5"/>
    <path id="Path_267" data-name="Path 267" d="M289.582,915.952l.051.587,1.14.207.207.07" transform="translate(-279.626 -880.04)" fill="none" stroke="#1a1818" stroke-linejoin="bevel" stroke-width="0.5"/>
    <line id="Line_45" data-name="Line 45" x2="0.029" y2="0.207" transform="translate(11.117 36.499)" fill="none" stroke="#1a1818" stroke-linejoin="bevel" stroke-width="0.5"/>
    <path id="Path_268" data-name="Path 268" d="M320.427,911.737v-18.9h-6.072v18.827" transform="translate(-265.917 -892.834)" fill="none" stroke="#1a1818" stroke-linejoin="bevel" stroke-width="0.5"/>
    <path id="Path_269" data-name="Path 269" d="M311.824,905h17.457l.21.216-.057,77.409-.152.191H311.828l-.154-.191V905.143Z" transform="translate(-267.4 -886.099)" fill="none" stroke="#1a1818" stroke-linejoin="bevel" stroke-width="0.5"/>
    <line id="Line_46" data-name="Line 46" y2="0.777" transform="translate(48.438 19.183)" fill="none" stroke="#1a1818" stroke-linejoin="bevel" stroke-width="0.5"/>
    <line id="Line_47" data-name="Line 47" y2="17.308" transform="translate(48.438 21.465)" fill="none" stroke="#1a1818" stroke-linejoin="bevel" stroke-width="0.5" stroke-dasharray="0.969 0.969"/>
    <path id="Path_270" data-name="Path 270" d="M314.355,918.278v.777h.777" transform="translate(-265.917 -878.753)" fill="none" stroke="#1a1818" stroke-linejoin="bevel" stroke-width="0.5"/>
    <line id="Line_48" data-name="Line 48" x2="2.259" transform="translate(50.721 40.302)" fill="none" stroke="#1a1818" stroke-linejoin="bevel" stroke-width="0.5" stroke-dasharray="0.97 0.97"/>
    <path id="Path_271" data-name="Path 271" d="M317.764,919.055h.777v-.777" transform="translate(-264.03 -878.753)" fill="none" stroke="#1a1818" stroke-linejoin="bevel" stroke-width="0.5"/>
    <line id="Line_49" data-name="Line 49" y1="17.308" transform="translate(54.51 20.712)" fill="none" stroke="#1a1818" stroke-linejoin="bevel" stroke-width="0.5" stroke-dasharray="0.969 0.969"/>
    <line id="Line_50" data-name="Line 50" y1="0.777" transform="translate(54.51 19.183)" fill="none" stroke="#1a1818" stroke-linejoin="bevel" stroke-width="0.5"/>
    <path id="Path_272" data-name="Path 272" d="M315.584,930.483V912.42l.306-1.223a.871.871,0,0,1,.84-.573.762.762,0,0,1,.763.573l.306,1.108v18.178Z" transform="translate(-265.236 -882.989)" fill="none" stroke="#1a1818" stroke-linejoin="bevel" stroke-width="0.5" stroke-dasharray="0.3 0.3"/>
    <rect id="Rectangle_110" data-name="Rectangle 110" width="4.391" height="1.681" transform="translate(49.279 43.255)" fill="none" stroke="#1a1818" stroke-linejoin="bevel" stroke-width="0.5" stroke-dasharray="0.5 0.5"/>
    <path id="Path_273" data-name="Path 273" d="M315.738,911.179s.236.785.868.84c0,0,.567.044.865-.879" transform="translate(-265.151 -882.703)" fill="none" stroke="#1a1818" stroke-linejoin="bevel" stroke-width="0.5" stroke-dasharray="0.3 0.3"/>
    <path id="Path_274" data-name="Path 274" d="M311.675,905.093h16.918l.152.076h.744" transform="translate(-267.4 -886.05)" fill="none" stroke="#1a1818" stroke-linejoin="bevel" stroke-width="0.5"/>
    <path id="Path_275" data-name="Path 275" d="M322.665,905.142v13.78a11.723,11.723,0,0,0,.191,2.412c.228.993.5,1.87.5,1.87" transform="translate(-261.319 -886.023)" fill="none" stroke="#1a1818" stroke-linejoin="bevel" stroke-width="0.5"/>
    <path id="Path_276" data-name="Path 276" d="M323.168,908.891a.228.228,0,0,1,.249.249v3.152s.047.247-.249.247" transform="translate(-261.04 -883.948)" fill="none" stroke="#1a1818" stroke-linejoin="bevel" stroke-width="0.5"/>
    <path id="Path_277" data-name="Path 277" d="M323.168,911.682h.134s.117.042.117.241v.485s-.04.115-.25.115" transform="translate(-261.04 -882.403)" fill="none" stroke="#1a1818" stroke-linejoin="bevel" stroke-width="0.5"/>
    <path id="Path_278" data-name="Path 278" d="M323.107,912.666h.191s.152-.042.152.191v.458s.014.191-.343.191" transform="translate(-261.073 -881.86)" fill="none" stroke="#1a1818" stroke-linejoin="bevel" stroke-width="0.5"/>
    <path id="Path_279" data-name="Path 279" d="M323.469,923.555H322.8s-.115,1.26-.191,1.718-.076,4.812,0,5.423.228,1.26.228,1.26l.688-.037Z" transform="translate(-261.38 -875.833)" fill="none" stroke="#1a1818" stroke-linejoin="bevel" stroke-width="0.5"/>
    <path id="Path_280" data-name="Path 280" d="M323.276,923.555a25.572,25.572,0,0,0-.057,8.382" transform="translate(-261.186 -875.833)" fill="none" stroke="#1a1818" stroke-linejoin="bevel" stroke-width="0.5"/>
    <path id="Path_281" data-name="Path 281" d="M323.042,923.759l.039-.573h-.458a13.082,13.082,0,0,0-.5,3.312c0,1.672-.042,3.534.076,4.25s.421,1.985.421,1.985h.458v-.573" transform="translate(-261.62 -876.037)" fill="none" stroke="#1a1818" stroke-linejoin="bevel" stroke-width="0.5"/>
    <path id="Path_282" data-name="Path 282" d="M322.91,932.734a9.791,9.791,0,0,1-.482-2.482c.023-.948.023-4.888.023-4.888a7.187,7.187,0,0,1,.458-2.176" transform="translate(-261.449 -876.037)" fill="none" stroke="#1a1818" stroke-linejoin="bevel" stroke-width="0.5"/>
    <path id="Path_283" data-name="Path 283" d="M323.328,939.854h-.59v.688h.573" transform="translate(-261.278 -866.813)" fill="none" stroke="#1a1818" stroke-linejoin="bevel" stroke-width="0.5"/>
    <path id="Path_284" data-name="Path 284" d="M323.328,941.477h-.59v.688h.573" transform="translate(-261.278 -865.915)" fill="none" stroke="#1a1818" stroke-linejoin="bevel" stroke-width="0.5"/>
    <path id="Path_285" data-name="Path 285" d="M323.328,943.124h-.59v.688h.573" transform="translate(-261.278 -865.003)" fill="none" stroke="#1a1818" stroke-linejoin="bevel" stroke-width="0.5"/>
    <path id="Path_286" data-name="Path 286" d="M325.182,947.083h0a1.95,1.95,0,0,1-1.951-1.951V907.4A2.394,2.394,0,0,0,320.837,905h-1.715" transform="translate(-263.279 -886.099)" fill="none" stroke="#1a1818" stroke-linejoin="bevel" stroke-width="0.5"/>
    <path id="Path_287" data-name="Path 287" d="M323.9,948.743h0a2.137,2.137,0,0,1-2.138-2.137v-6.113a2.137,2.137,0,0,1,2.138-2.138Z" transform="translate(-261.815 -867.643)" fill="none" stroke="#1a1818" stroke-linejoin="bevel" stroke-width="0.5"/>
    <path id="Path_288" data-name="Path 288" d="M299.639,948.688h0c-.593.4-1.16.183-1.266-.478l-.8-5.025a2.132,2.132,0,0,1,.884-1.917c.593-.4,1.16-.183,1.266.478l.8,5.025A2.132,2.132,0,0,1,299.639,948.688Z" transform="translate(-275.213 -866.141)" fill="none" stroke="#1a1818" stroke-linejoin="bevel" stroke-width="0.5"/>
    <path id="Path_289" data-name="Path 289" d="M288.26,919.492l4.837.426a1.474,1.474,0,0,1,1.328,1.219c.624,3.638,2.625,15.29,3.8,22.016a2.585,2.585,0,0,0,4.416,1.339,1.783,1.783,0,0,0,.474-1.522l-.275-1.7" transform="translate(-280.357 -878.081)" fill="none" stroke="#1a1818" stroke-linejoin="bevel" stroke-width="0.5"/>
    <line id="Line_51" data-name="Line 51" x2="6.116" transform="translate(48.393 17.501)" fill="none" stroke="#1a1818" stroke-linejoin="bevel" stroke-width="0.5"/>
  </g>
</svg>
